<svg width="580" height="261" viewBox="0 0 580 261" fill="none" xmlns="http://www.w3.org/2000/svg">
<g clip-path="url(#clip0_451_49)">
<path d="M260.92 81.54V260.92H228.3V114.15H146.77V32.61H32.61V228.3H130.46V212H48.92V179.38H163.07V260.92H0V0H179.38V81.54H260.92Z" fill="#0B0B0B"/>
<path d="M260.92 0H195.69V65.23H260.92V0Z" fill="#FF4931"/>
<path d="M212 130.46V260.92H179.38V163.07H48.9199V48.9199H130.46V81.5399H81.5399V130.46H212Z" fill="#0B0B0B"/>
<path d="M351.13 137.39V148.71H309.05C306.89 148.71 305.22 150.67 305.22 153.21C305.22 155.75 306.88 157.7 309.05 157.7H339.45C347.06 157.7 352.91 164.59 352.91 173.51C352.91 182.43 347.06 189.32 339.45 189.32H294.14V178H337.28C339.44 178 341.11 176.04 341.11 173.51C341.11 170.98 339.45 169.02 337.28 169.02H306.88C299.27 169.02 293.41 162.13 293.41 153.21C293.41 144.29 299.26 137.4 306.88 137.4H351.14L351.13 137.39Z" fill="#0B0B0B"/>
<path d="M370.69 137.39V157H406.12V137.39H417.93V189.32H406.12V166.99H370.69V189.32H358.88V137.39H370.69Z" fill="#0B0B0B"/>
<path d="M464.71 137.39C477.21 137.39 486.82 148.7 486.82 163.36C486.82 178.02 477.21 189.33 464.71 189.33H446.04C433.54 189.33 423.93 178.02 423.93 163.36C423.93 148.7 433.54 137.39 446.04 137.39H464.71ZM435.74 163.36C435.74 171.63 441.16 178.01 448.21 178.01H462.53C469.58 178.01 475 171.63 475 163.36C475 155.09 469.58 148.71 462.53 148.71H448.21C441.16 148.71 435.74 155.09 435.74 163.36Z" fill="#0B0B0B"/>
<path d="M498.12 137.39L511.75 170.47L525.38 137.39H532.09L545.72 170.47L559.35 137.39H570.53L548.61 189.32H542.15L528.4 155.98L514.65 189.32H508.19L486.27 137.39H498.13H498.12Z" fill="#0B0B0B"/>
<path d="M354.81 208.7V220.02H317.69C310.64 220.02 305.22 226.4 305.22 234.67C305.22 242.94 310.64 249.32 317.69 249.32H343V239.28H313.93V230.6H354.81V260.64H315.51C303.01 260.64 293.4 249.33 293.4 234.67C293.4 220.01 303.01 208.7 315.51 208.7H354.81Z" fill="#0B0B0B"/>
<path d="M407.61 208.7C415.86 208.7 422.21 216.16 422.21 225.84C422.21 234.09 417.55 240.71 411.07 242.36L422.21 260.63H410.4L399.65 242.98H372.62V260.63H360.81V208.7H407.62H407.61ZM372.61 231.66H405.43C408.23 231.66 410.39 229.12 410.39 225.84C410.39 222.56 408.23 220.02 405.43 220.02H372.61V231.67V231.66Z" fill="#0B0B0B"/>
<path d="M440.01 208.7V234.67C440.01 242.94 445.43 249.32 452.48 249.32H465.57C472.62 249.32 478.04 242.94 478.04 234.67V208.7H489.85V234.67C489.85 249.33 480.24 260.64 467.74 260.64H450.3C437.8 260.64 428.19 249.33 428.19 234.67V208.7H440H440.01Z" fill="#0B0B0B"/>
<path d="M542.64 208.7C550.89 208.7 557.24 216.16 557.24 225.84C557.24 235.52 550.9 242.98 542.64 242.98H507.64V260.63H495.83V208.7H542.64ZM507.64 231.66H540.46C543.26 231.66 545.42 229.12 545.42 225.84C545.42 222.56 543.26 220.02 540.46 220.02H507.64V231.67V231.66Z" fill="#0B0B0B"/>
<path d="M305.22 66.0698L327.58 103.03L349.94 66.0698H361.75V118H349.94V84.7698L329.95 118H325.21L305.22 84.7698V118H293.41V66.0698H305.22Z" fill="#0B0B0B"/>
<path d="M420.27 66.0698V77.3898H379.49V87.3598H418.85V95.4998H379.49V106.69H420.27V118.01H367.68V66.0798H420.27V66.0698Z" fill="#0B0B0B"/>
<path d="M461.2 66.0698C473.7 66.0698 483.31 77.3798 483.31 92.0398C483.31 106.7 473.7 118.01 461.2 118.01H426.2V66.0798H461.2V66.0698ZM438.01 106.69H459.02C466.07 106.69 471.49 100.31 471.49 92.0398C471.49 83.7698 466.07 77.3898 459.02 77.3898H438.01V106.69Z" fill="#0B0B0B"/>
<path d="M501.11 66.0698V118H489.3V66.0698H501.11Z" fill="#0B0B0B"/>
<path d="M545.79 66.0698L580 118H566.84L561.06 108.88H526.04L520.26 118H507.1L541.31 66.0698H545.78H545.79ZM532.2 99.8898H554.91L543.56 82.0198L532.21 99.8898H532.2Z" fill="#0B0B0B"/>
</g>
<defs>
<clipPath id="clip0_451_49">
<rect width="580" height="260.92" fill="white"/>
</clipPath>
</defs>
</svg>
