<svg width="369" height="369" viewBox="0 0 369 369" fill="none" xmlns="http://www.w3.org/2000/svg">
<g clip-path="url(#clip0_530_92)">
<path d="M242.16 57.6602L369 184.5L345.93 207.57L242.15 103.78L184.5 161.43L126.84 103.77L46.12 184.5L184.49 322.87L253.68 253.68L242.16 242.16L184.5 299.82L161.43 276.75L242.15 196.03L299.81 253.69L184.5 369L0 184.5L126.84 57.6602L184.5 115.32L242.16 57.6602Z" fill="white"/>
<path d="M242.16 126.84L334.41 219.09L311.34 242.16L242.15 172.97L149.9 265.21L69.1802 184.5L126.84 126.84L149.91 149.91L115.32 184.5L149.91 219.09L242.16 126.84Z" fill="white"/>
</g>
<defs>
<clipPath id="clip0_530_92">
<rect width="369" height="369" fill="white"/>
</clipPath>
</defs>
</svg>
