<svg width="411" height="326" viewBox="0 0 411 326" fill="none" xmlns="http://www.w3.org/2000/svg">
<path d="M90.4598 323.45C86.2498 323.45 82.9698 320.61 82.9698 316.04C82.9698 311.75 86.2598 308.62 90.0598 308.62C92.1398 308.62 94.1398 309.14 95.7498 310.58L96.7498 308.9C95.0298 307.26 92.5398 306.66 89.7398 306.66C84.6098 306.66 80.7598 310.79 80.7598 316.04C80.7598 321.73 84.7298 325.42 90.2998 325.42C92.9498 325.42 95.5898 324.42 97.1098 322.49L96.0698 320.97C94.8298 322.41 92.7798 323.45 90.4598 323.45Z" fill="white"/>
<path d="M103.76 309.42V307.02H101.68V325.05H103.76V311.59C104.6 310.15 105.8 308.66 108.17 308.66C109.33 308.66 109.81 308.82 110.69 309.34L111.41 307.38C110.81 306.94 110.09 306.7 108.6 306.7C106.24 306.7 104.75 307.9 103.75 309.42H103.76Z" fill="white"/>
<path d="M122.71 306.66C116.78 306.66 113.57 310.79 113.57 316.04C113.57 321.73 117.46 325.42 123.15 325.42C125.56 325.42 128.16 324.58 129.8 322.85L129.12 321.25C127.88 322.53 125.71 323.45 123.27 323.45C118.94 323.45 116.06 320.8 115.9 316.48H130.77C130.85 316 130.89 315.48 130.89 314.8C130.89 309.87 127.36 306.67 122.71 306.67V306.66ZM115.78 314.75C116.14 311.22 118.51 308.62 122.51 308.62C126.28 308.62 128.68 310.94 128.76 314.75H115.78Z" fill="white"/>
<path d="M141.58 306.66C139.46 306.66 137.53 307.26 135.85 308.3L136.41 310.02C138.01 309.14 139.33 308.62 141.46 308.62C145.95 308.62 146.19 311.39 146.19 315.67C144.75 314.63 142.74 314.31 141.3 314.31C137.41 314.31 134.45 316.31 134.45 319.92C134.45 323.21 136.69 325.29 140.02 325.29C143.35 325.29 145.07 323.81 146.19 322.29V325.05H148.27V313.87C148.27 309.3 146.59 306.66 141.58 306.66ZM146.19 320.48C145.19 321.8 143.71 323.32 140.66 323.32C138.42 323.32 136.65 322.04 136.65 319.79C136.65 317.14 139.13 316.02 141.5 316.02C143.34 316.02 144.87 316.5 146.19 317.46V320.46V320.48Z" fill="white"/>
<path d="M159.97 323.33C157.09 323.33 155.92 321.41 155.92 317.88V308.98H163.17V307.02H155.92V302.01H153.83V318.2C153.83 322.81 155.47 325.29 159.48 325.29C161.2 325.29 162.68 324.69 163.53 324.01L162.85 322.37C162.21 322.85 161.17 323.33 159.97 323.33Z" fill="white"/>
<path d="M170.3 298.68C169.5 298.68 168.82 299.2 168.82 300C168.82 300.92 169.5 301.48 170.3 301.48C170.98 301.48 171.66 300.92 171.66 300C171.66 299.2 170.98 298.68 170.3 298.68Z" fill="white"/>
<path d="M171.26 307.02H169.18V325.05H171.26V307.02Z" fill="white"/>
<path d="M186.77 318.24C186.21 319.52 185.65 321 185.17 322.33C184.69 321.01 184.09 319.61 183.53 318.36L178.36 307.02H175.92L184.38 325.29H185.82L193.95 307.02H191.75L186.78 318.24H186.77Z" fill="white"/>
<path d="M204.68 306.66C198.75 306.66 195.54 310.79 195.54 316.04C195.54 321.73 199.43 325.42 205.12 325.42C207.53 325.42 210.13 324.58 211.77 322.85L211.09 321.25C209.85 322.53 207.68 323.45 205.24 323.45C200.91 323.45 198.03 320.8 197.87 316.48H212.74C212.82 316 212.86 315.48 212.86 314.8C212.86 309.87 209.33 306.67 204.68 306.67V306.66ZM197.75 314.75C198.11 311.22 200.48 308.62 204.48 308.62C208.25 308.62 210.65 310.94 210.73 314.75H197.75Z" fill="white"/>
<path d="M228.79 311.38C228.79 309.82 230.19 308.49 232.44 308.49C234.28 308.49 236.05 309.17 237.17 310.21L238.05 308.65C237.01 307.57 234.92 306.65 232.4 306.65C228.95 306.65 226.59 308.53 226.59 311.42C226.59 318.03 236.57 315.79 236.57 320.32C236.57 322.52 234.61 323.56 232.52 323.56C230.72 323.56 228.27 322.72 227.27 321.44L226.11 322.8C226.95 324.08 229.76 325.41 232.28 325.41C235.73 325.41 238.77 323.81 238.77 320.24C238.77 313.91 228.79 316.16 228.79 311.39V311.38Z" fill="white"/>
<path d="M249.71 323.33C246.83 323.33 245.66 321.41 245.66 317.88V308.98H252.91V307.02H245.66V302.01H243.57V318.2C243.57 322.81 245.21 325.29 249.22 325.29C250.94 325.29 252.42 324.69 253.27 324.01L252.59 322.37C251.95 322.85 250.91 323.33 249.71 323.33Z" fill="white"/>
<path d="M271.26 320.32C270.1 321.84 267.69 323.44 265.17 323.44C261.28 323.44 259.6 321.24 259.6 317.03V307.01H257.51V317.47C257.51 322.92 260.04 325.4 264.4 325.4C267.29 325.4 269.89 323.88 271.25 322.2V325.04H273.33V307.01H271.25V320.31L271.26 320.32Z" fill="white"/>
<path d="M293.45 308.22C291.97 307.14 290.32 306.66 288.24 306.66C282.63 306.66 278.42 310.55 278.42 316.12C278.42 321.69 281.91 325.38 287.24 325.38C289.84 325.38 292.05 324.1 293.45 322.49V325.06H295.54V297.01H293.45V308.23V308.22ZM293.45 320.56C292.29 321.92 290.05 323.41 287.64 323.41C283.51 323.41 280.63 320.64 280.63 316.03C280.63 311.42 284.08 308.62 288.28 308.62C289.96 308.62 291.61 309.02 293.45 310.26V320.56Z" fill="white"/>
<path d="M304.95 307.02H302.87V325.05H304.95V307.02Z" fill="white"/>
<path d="M303.99 298.68C303.19 298.68 302.51 299.2 302.51 300C302.51 300.92 303.19 301.48 303.99 301.48C304.67 301.48 305.35 300.92 305.35 300C305.35 299.2 304.67 298.68 303.99 298.68Z" fill="white"/>
<path d="M320.49 306.66C314.88 306.66 311.03 310.63 311.03 316.04C311.03 321.45 314.88 325.42 320.49 325.42C326.1 325.42 329.95 321.45 329.95 316.04C329.95 310.63 326.1 306.66 320.49 306.66ZM320.49 323.44C316.28 323.44 313.24 320.36 313.24 316.03C313.24 311.7 316.33 308.61 320.49 308.61C324.65 308.61 327.74 311.7 327.74 316.03C327.74 320.36 324.73 323.44 320.49 323.44Z" fill="white"/>
<path d="M15.82 243.88H15.21L0 286.64H12.83H13.01L15.39 279.25L18.21 269.84L22.79 254.75L27.3701 269.84L30.33 279.25L32.65 286.64H44.9H45.51L30.36 243.88H15.82Z" fill="white"/>
<path d="M211.5 243.88H210.89L195.68 286.64H203.04H208.5H208.68L211.06 279.25L213.88 269.84L218.46 254.75L223.04 269.84L226.01 279.25L228.33 286.64H240.57H241.18L226.03 243.88H211.5Z" fill="white"/>
<path d="M301.99 243.88H301.38L286.17 286.64H299H299.18L301.56 279.25L304.37 269.84L308.95 254.75L313.53 269.84L316.5 279.25L318.82 286.64H331.06H331.68L316.53 243.88H301.99Z" fill="white"/>
<path d="M86.4902 286.64L74.5201 269.54C74.6001 269.5 74.6801 269.47 74.7601 269.45C74.8401 269.43 74.9201 269.4 75.0001 269.36C77.1201 268.54 79.0601 267.17 80.8301 265.24C82.6001 263.31 83.4902 260.47 83.4902 256.72C83.4902 253.3 82.7101 250.71 81.1401 248.96C79.5701 247.21 77.8502 245.95 75.9802 245.17C74.3902 244.52 72.8801 244.14 71.4601 244.04C70.0301 243.94 69.1201 243.89 68.7101 243.89H50.3901V286.65H62.9702V273.52L71.4001 286.65H86.4902V286.64ZM70.9202 257.9V258.66C70.8402 259.76 70.3901 260.78 69.5801 261.71C68.7601 262.65 67.3402 263.11 65.3002 263.11H62.9802V253.28H65.3002C67.2902 253.28 68.7001 253.73 69.5101 254.62C70.3201 255.52 70.7902 256.49 70.9102 257.55V257.89L70.9202 257.9Z" fill="white"/>
<path d="M109.76 286.64H110.38V254.14H119.78V243.88H89.0001H88.3901V254.14H97.7902V286.64H109.76Z" fill="white"/>
<path d="M170.67 287.86L171.28 287.8C177.79 287.8 182.56 286.3 185.57 283.31C188.58 280.32 190.6 277.01 191.62 273.38C192.03 271.88 192.3 270.39 192.45 268.92C192.59 267.45 192.66 266.11 192.66 264.89C192.66 264.32 192.65 263.77 192.63 263.24C192.61 262.71 192.58 262.24 192.54 261.84H168.96V271.25H180.08C179.59 273.41 178.51 275.13 176.84 276.41C175.17 277.69 173.18 278.37 170.85 278.46C167.71 278.38 165.08 277.19 162.94 274.89C160.8 272.59 159.73 269.4 159.73 265.33C159.73 261.26 160.8 258.24 162.94 256.14C165.08 254.04 167.57 252.97 170.42 252.93C172.41 252.97 174.17 253.44 175.67 254.34C177.18 255.24 178.32 256.46 179.09 258H179.7L190.27 253.05C188.4 249.55 185.72 246.94 182.24 245.23C178.76 243.52 174.82 242.66 170.42 242.66H169.81C162.81 242.66 157.28 244.78 153.23 249.01C149.18 253.25 147.15 258.76 147.15 265.56C147.15 272.93 149.49 278.48 154.17 282.21C158.85 285.93 164.35 287.82 170.66 287.86H170.67Z" fill="white"/>
<path d="M246.04 243.88V286.64H258.62V273.51L267.05 286.64H282.14L270.17 269.54C270.25 269.5 270.33 269.47 270.41 269.45C270.49 269.43 270.57 269.4 270.65 269.36C272.77 268.54 274.71 267.17 276.48 265.24C278.25 263.31 279.14 260.47 279.14 256.72C279.14 253.3 278.36 250.71 276.79 248.96C275.22 247.21 273.5 245.95 271.63 245.17C270.04 244.52 268.53 244.14 267.11 244.04C265.68 243.94 264.77 243.89 264.36 243.89H246.04V243.88ZM258.62 253.29H260.94C262.93 253.29 264.34 253.74 265.15 254.63C265.96 255.53 266.43 256.5 266.56 257.56V258.66C266.48 259.76 266.03 260.78 265.22 261.71C264.4 262.65 262.98 263.11 260.94 263.11H258.62V253.28V253.29Z" fill="white"/>
<path d="M377.06 261.84H353.48V271.25H364.6C364.11 273.41 363.03 275.13 361.36 276.41C359.69 277.69 357.7 278.37 355.37 278.46C352.23 278.38 349.6 277.19 347.46 274.89C345.32 272.59 344.25 269.4 344.25 265.33C344.25 261.26 345.32 258.24 347.46 256.14C349.6 254.04 352.09 252.97 354.94 252.93C356.93 252.97 358.69 253.44 360.19 254.34C361.7 255.24 362.84 256.46 363.61 258H364.22L374.79 253.05C372.92 249.55 370.24 246.94 366.76 245.23C363.28 243.52 359.34 242.66 354.94 242.66H354.33C347.33 242.66 341.8 244.78 337.75 249.01C333.7 253.25 331.67 258.76 331.67 265.56C331.67 272.93 334.01 278.48 338.69 282.21C343.37 285.93 348.87 287.82 355.18 287.86L355.79 287.8C362.3 287.8 367.07 286.3 370.08 283.31C373.09 280.32 375.11 277.01 376.13 273.38C376.54 271.88 376.81 270.39 376.96 268.92C377.1 267.45 377.17 266.11 377.17 264.89C377.17 264.32 377.16 263.77 377.14 263.24C377.12 262.71 377.09 262.24 377.05 261.84H377.06Z" fill="white"/>
<path d="M410.71 254.14V243.88H385.06H384.45V286.64H410.1H410.71V276.38H397.03V269.53H409.43V260.13H397.03V254.14H410.71Z" fill="white"/>
<path d="M241.03 55.87L129.33 122.21V122.22L258.81 199.12C258.81 199.12 258.81 199.12 258.82 199.12V131.88L258.81 131.86C258.81 131.86 244.25 122.91 215.14 105.02C212.87 106.33 211.58 107.1 211.58 107.1L207.32 109.58C205.54 110.51 202.13 112.69 202.13 112.69C202.13 112.69 200.44 113.7 197.9 115.28C221.38 129.71 241.04 141.81 241.04 141.81V167.86L164.17 122.21L258.82 66H258.83V65.98L258.73 0.0499992C258.73 0.0499992 258.81 0 258.8 0C258.8 0 258.63 0.0799986 257.94 0.439999C257.18 0.839999 257.07 0.899999 257.09 0.879999C255.22 1.92 216.76 23.39 129.07 72.4V92.79C201.38 52.39 241.04 30.23 241.04 30.23V55.87H241.03Z" fill="white"/>
<path d="M257.12 0.879986C257.12 0.879986 257.09 0.889986 257.09 0.899986C257.14 0.869986 257.16 0.859985 257.16 0.859985C257.16 0.859985 257.14 0.859986 257.12 0.879986Z" fill="white"/>
</svg>
