<svg width="477" height="171" viewBox="0 0 477 171" fill="none" xmlns="http://www.w3.org/2000/svg">
<path d="M301.74 121.25H257.18C249.06 121.25 242.45 114.64 242.45 106.52V70.6699C242.45 62.5499 249.06 55.9399 257.18 55.9399H301.74C309.86 55.9399 316.47 62.5499 316.47 70.6699V106.52C316.47 114.64 309.86 121.25 301.74 121.25ZM257.18 67.2799C255.3 67.2799 253.78 68.7999 253.78 70.6799V106.53C253.78 108.4 255.31 109.93 257.18 109.93H301.74C303.61 109.93 305.14 108.41 305.14 106.53V70.6799C305.14 68.8099 303.62 67.2799 301.74 67.2799H257.18Z" fill="white"/>
<path d="M140.2 121.25H95.6402C87.5202 121.25 80.9102 114.64 80.9102 106.52V70.6699C80.9102 62.5499 87.5202 55.9399 95.6402 55.9399H140.2C148.32 55.9399 154.93 62.5499 154.93 70.6699V106.52C154.93 114.64 148.32 121.25 140.2 121.25ZM95.6301 67.2799C93.7601 67.2799 92.2302 68.7999 92.2302 70.6799V106.53C92.2302 108.4 93.7501 109.93 95.6301 109.93H140.19C142.06 109.93 143.59 108.41 143.59 106.53V70.6799C143.59 68.8099 142.07 67.2799 140.19 67.2799H95.6301Z" fill="white"/>
<path d="M59.29 159.09H22.69C10.18 159.09 0 148.91 0 136.4H11.33C11.33 142.66 16.43 147.76 22.69 147.76H59.29C61.16 147.76 62.69 146.24 62.69 144.36V121.25H14.73C6.61 121.25 0 114.64 0 106.52V70.6699C0 62.5499 6.61 55.9399 14.73 55.9399H59.29C67.41 55.9399 74.02 62.5499 74.02 70.6699V144.35C74.02 152.47 67.41 159.08 59.29 159.08V159.09ZM14.73 67.2799C12.86 67.2799 11.33 68.7999 11.33 70.6799V106.53C11.33 108.4 12.85 109.93 14.73 109.93H62.69V70.6899C62.69 68.8199 61.17 67.2899 59.29 67.2899H14.73V67.2799Z" fill="white"/>
<path d="M470.54 121.25H419.08C410.96 121.25 404.35 114.64 404.35 106.52V70.6699C404.35 62.5499 410.96 55.9399 419.08 55.9399H461.47C469.59 55.9399 476.2 62.5499 476.2 70.6699V79.5299C476.2 87.6499 469.59 94.2599 461.47 94.2599H415.68V106.52C415.68 108.39 417.2 109.92 419.08 109.92H470.54V121.25ZM415.68 82.9399H461.47C463.34 82.9399 464.87 81.4199 464.87 79.5399V70.6799C464.87 68.8099 463.35 67.2799 461.47 67.2799H419.08C417.21 67.2799 415.68 68.7999 415.68 70.6799V82.9399Z" fill="white"/>
<path d="M382.74 121.25H338.08C329.96 121.25 323.35 114.64 323.35 106.52V70.59C323.35 62.47 329.96 55.86 338.08 55.86H386.14V0H397.47V106.52C397.47 114.64 390.86 121.25 382.74 121.25ZM338.08 67.2C336.21 67.2 334.68 68.72 334.68 70.6V106.53C334.68 108.4 336.2 109.93 338.08 109.93H382.74C384.61 109.93 386.14 108.41 386.14 106.53V67.21H338.08V67.2Z" fill="white"/>
<path d="M223.94 0.0200195C243.55 0.0200195 259.44 15.91 259.44 35.52V118.85C259.44 131.35 252.98 142.34 243.22 148.66L258.86 164.31L256.12 167.05C251.7 171.47 244.52 171.47 240.1 167.05L227.25 154.2C226.16 154.3 225.06 154.35 223.94 154.35H173.43C153.82 154.35 137.93 138.46 137.93 118.85V35.52C137.93 15.91 153.82 0.0200195 173.43 0.0200195H223.94ZM173.43 22.68C166.34 22.68 160.59 28.43 160.59 35.52V118.85C160.59 125.94 166.34 131.69 173.43 131.69H204.74L194.7 121.65L197.44 118.91C201.86 114.49 209.04 114.49 213.46 118.91L226.06 131.51C232.14 130.5 236.77 125.21 236.77 118.85V35.52C236.77 28.43 231.02 22.68 223.93 22.68H173.42H173.43Z" fill="white"/>
<path d="M263.9 152.67L260.2 140.53H262.16L264.78 149.83H264.91L267.5 140.53H269.49L272.05 149.8H272.17L274.8 140.53H276.76L273.06 152.67H271.23L268.57 143.34H268.38L265.72 152.67H263.89H263.9ZM283.92 152.92C282.75 152.92 281.74 152.66 280.89 152.15C280.05 151.63 279.4 150.9 278.94 149.97C278.49 149.03 278.26 147.94 278.26 146.7C278.26 145.46 278.49 144.36 278.94 143.41C279.4 142.46 280.04 141.71 280.85 141.18C281.67 140.64 282.63 140.37 283.73 140.37C284.36 140.37 284.99 140.48 285.6 140.69C286.21 140.9 286.78 141.24 287.28 141.72C287.79 142.19 288.19 142.81 288.49 143.59C288.79 144.36 288.94 145.32 288.94 146.45V147.24H279.58V145.63H287.04C287.04 144.94 286.9 144.33 286.63 143.8C286.36 143.26 285.98 142.84 285.48 142.53C284.99 142.22 284.4 142.06 283.73 142.06C282.99 142.06 282.34 142.24 281.8 142.61C281.26 142.97 280.85 143.45 280.56 144.03C280.27 144.61 280.13 145.24 280.13 145.91V146.99C280.13 147.91 280.29 148.68 280.6 149.32C280.92 149.95 281.37 150.43 281.94 150.77C282.51 151.1 283.17 151.26 283.92 151.26C284.41 151.26 284.85 151.19 285.25 151.05C285.65 150.91 286 150.7 286.29 150.42C286.58 150.14 286.8 149.78 286.96 149.36L288.76 149.87C288.57 150.48 288.25 151.02 287.8 151.48C287.35 151.94 286.8 152.3 286.14 152.56C285.48 152.81 284.74 152.94 283.92 152.94V152.92ZM298.3 152.67V136.48H300.17V142.46H300.33C300.47 142.25 300.66 141.98 300.9 141.65C301.15 141.32 301.5 141.02 301.96 140.76C302.42 140.5 303.05 140.36 303.84 140.36C304.86 140.36 305.77 140.62 306.54 141.13C307.32 141.64 307.93 142.37 308.37 143.3C308.81 144.24 309.03 145.35 309.03 146.62C309.03 147.89 308.81 149.02 308.37 149.96C307.93 150.9 307.33 151.63 306.55 152.14C305.77 152.65 304.88 152.91 303.87 152.91C303.09 152.91 302.47 152.78 302 152.52C301.53 152.26 301.17 151.96 300.92 151.63C300.67 151.29 300.47 151.01 300.34 150.79H300.12V152.66H298.32L298.3 152.67ZM300.13 146.6C300.13 147.52 300.26 148.33 300.53 149.03C300.8 149.73 301.19 150.27 301.71 150.67C302.23 151.06 302.86 151.26 303.61 151.26C304.36 151.26 305.04 151.05 305.56 150.64C306.09 150.22 306.48 149.66 306.75 148.96C307.02 148.25 307.15 147.47 307.15 146.6C307.15 145.73 307.02 144.98 306.75 144.29C306.49 143.6 306.1 143.05 305.57 142.65C305.05 142.24 304.39 142.04 303.6 142.04C302.81 142.04 302.2 142.23 301.68 142.62C301.16 143 300.77 143.53 300.51 144.22C300.25 144.9 300.11 145.69 300.11 146.6H300.13ZM319.53 147.7V140.52H321.4V152.66H319.53V150.6H319.4C319.12 151.22 318.67 151.74 318.07 152.17C317.47 152.6 316.71 152.81 315.79 152.81C315.03 152.81 314.36 152.64 313.77 152.31C313.18 151.97 312.72 151.47 312.38 150.79C312.04 150.11 311.87 149.25 311.87 148.22V140.5H313.74V148.09C313.74 148.98 313.99 149.68 314.48 150.21C314.98 150.74 315.62 151 316.39 151C316.85 151 317.32 150.88 317.8 150.64C318.29 150.4 318.69 150.04 319.02 149.55C319.35 149.06 319.52 148.43 319.52 147.68L319.53 147.7ZM324.81 152.67V140.53H326.68V152.67H324.81ZM325.76 138.5C325.4 138.5 325.08 138.38 324.82 138.13C324.56 137.88 324.43 137.58 324.43 137.24C324.43 136.9 324.56 136.59 324.82 136.35C325.08 136.1 325.4 135.98 325.76 135.98C326.12 135.98 326.43 136.1 326.69 136.35C326.95 136.6 327.09 136.9 327.09 137.24C327.09 137.58 326.96 137.89 326.69 138.13C326.43 138.38 326.12 138.5 325.76 138.5ZM331.96 136.48V152.67H330.1V136.48H331.96ZM339.97 152.92C338.96 152.92 338.06 152.66 337.29 152.15C336.51 151.63 335.91 150.91 335.47 149.97C335.03 149.03 334.81 147.91 334.81 146.63C334.81 145.35 335.03 144.25 335.47 143.31C335.91 142.37 336.52 141.65 337.3 141.14C338.08 140.63 338.98 140.37 340 140.37C340.79 140.37 341.42 140.5 341.87 140.77C342.33 141.03 342.69 141.32 342.93 141.66C343.18 141.99 343.37 142.26 343.51 142.47H343.67V136.49H345.54V152.68H343.74V150.81H343.52C343.38 151.03 343.19 151.31 342.94 151.65C342.69 151.98 342.33 152.28 341.86 152.54C341.39 152.8 340.77 152.93 339.99 152.93L339.97 152.92ZM340.22 151.25C340.97 151.25 341.6 151.05 342.12 150.66C342.64 150.26 343.03 149.72 343.3 149.02C343.57 148.32 343.7 147.51 343.7 146.59C343.7 145.67 343.57 144.89 343.3 144.21C343.04 143.52 342.65 142.99 342.13 142.61C341.61 142.23 340.98 142.03 340.22 142.03C339.46 142.03 338.77 142.23 338.24 142.64C337.72 143.04 337.33 143.59 337.06 144.28C336.8 144.97 336.67 145.73 336.67 146.59C336.67 147.45 336.8 148.24 337.06 148.95C337.33 149.65 337.73 150.21 338.25 150.63C338.78 151.04 339.43 151.25 340.21 151.25H340.22ZM355.73 152.67V136.48H357.6V142.46H357.76C357.9 142.25 358.09 141.98 358.33 141.65C358.58 141.32 358.93 141.02 359.39 140.76C359.85 140.5 360.48 140.36 361.27 140.36C362.29 140.36 363.2 140.62 363.98 141.13C364.76 141.64 365.37 142.37 365.81 143.3C366.25 144.24 366.47 145.35 366.47 146.62C366.47 147.89 366.25 149.02 365.81 149.96C365.37 150.9 364.77 151.63 363.99 152.14C363.21 152.65 362.32 152.91 361.31 152.91C360.53 152.91 359.91 152.78 359.44 152.52C358.97 152.26 358.61 151.96 358.36 151.63C358.11 151.29 357.91 151.01 357.77 150.79H357.55V152.66H355.75L355.73 152.67ZM357.56 146.6C357.56 147.52 357.69 148.33 357.96 149.03C358.23 149.73 358.62 150.27 359.14 150.67C359.66 151.06 360.29 151.26 361.04 151.26C361.79 151.26 362.47 151.05 362.99 150.64C363.52 150.22 363.91 149.66 364.18 148.96C364.45 148.25 364.58 147.47 364.58 146.6C364.58 145.73 364.45 144.98 364.18 144.29C363.92 143.6 363.53 143.05 363 142.65C362.48 142.24 361.82 142.04 361.03 142.04C360.24 142.04 359.63 142.23 359.12 142.62C358.6 143 358.21 143.53 357.95 144.22C357.69 144.9 357.56 145.69 357.56 146.6ZM374.23 152.92C373.13 152.92 372.17 152.66 371.35 152.14C370.53 151.62 369.88 150.89 369.42 149.95C368.96 149.01 368.73 147.92 368.73 146.66C368.73 145.4 368.96 144.29 369.42 143.35C369.88 142.41 370.53 141.67 371.35 141.15C372.18 140.63 373.14 140.37 374.23 140.37C375.32 140.37 376.29 140.63 377.11 141.15C377.94 141.67 378.58 142.4 379.04 143.35C379.5 144.29 379.73 145.4 379.73 146.66C379.73 147.92 379.5 149.01 379.04 149.95C378.58 150.89 377.94 151.62 377.11 152.14C376.29 152.66 375.33 152.92 374.23 152.92ZM374.23 151.25C375.06 151.25 375.75 151.04 376.29 150.61C376.83 150.18 377.22 149.62 377.48 148.93C377.74 148.23 377.87 147.48 377.87 146.67C377.87 145.86 377.74 145.1 377.48 144.4C377.22 143.7 376.82 143.13 376.29 142.7C375.75 142.27 375.07 142.05 374.23 142.05C373.39 142.05 372.71 142.27 372.18 142.7C371.64 143.13 371.25 143.7 370.99 144.4C370.73 145.1 370.6 145.86 370.6 146.67C370.6 147.48 370.73 148.24 370.99 148.93C371.25 149.63 371.65 150.19 372.18 150.61C372.72 151.04 373.4 151.25 374.23 151.25ZM384.45 136.48V152.67H382.58V136.48H384.45ZM392.46 152.92C391.45 152.92 390.55 152.66 389.78 152.15C389.01 151.63 388.4 150.91 387.96 149.97C387.52 149.03 387.3 147.91 387.3 146.63C387.3 145.35 387.52 144.25 387.96 143.31C388.4 142.37 389.01 141.65 389.79 141.14C390.57 140.63 391.47 140.37 392.49 140.37C393.28 140.37 393.91 140.5 394.36 140.77C394.82 141.03 395.18 141.32 395.42 141.66C395.67 141.99 395.86 142.26 396 142.47H396.16V136.49H398.02V152.68H396.22V150.81H396C395.86 151.03 395.67 151.31 395.42 151.65C395.17 151.98 394.81 152.28 394.34 152.54C393.87 152.8 393.25 152.93 392.47 152.93L392.46 152.92ZM392.71 151.25C393.46 151.25 394.09 151.05 394.61 150.66C395.13 150.26 395.52 149.72 395.79 149.02C396.06 148.32 396.19 147.51 396.19 146.59C396.19 145.67 396.06 144.89 395.79 144.21C395.53 143.52 395.14 142.99 394.62 142.61C394.1 142.23 393.47 142.03 392.7 142.03C391.93 142.03 391.25 142.23 390.72 142.64C390.2 143.04 389.81 143.59 389.54 144.28C389.28 144.97 389.15 145.73 389.15 146.59C389.15 147.45 389.28 148.24 389.55 148.95C389.82 149.65 390.22 150.21 390.74 150.63C391.27 151.04 391.92 151.25 392.7 151.25H392.71ZM412.55 152.92C411.54 152.92 410.64 152.66 409.87 152.15C409.1 151.63 408.49 150.91 408.05 149.97C407.61 149.03 407.39 147.91 407.39 146.63C407.39 145.35 407.61 144.25 408.05 143.31C408.49 142.37 409.1 141.65 409.88 141.14C410.66 140.63 411.56 140.37 412.58 140.37C413.37 140.37 413.99 140.5 414.45 140.77C414.91 141.03 415.27 141.32 415.51 141.66C415.76 141.99 415.95 142.26 416.09 142.47H416.25V136.49H418.11V152.68H416.31V150.81H416.09C415.95 151.03 415.76 151.31 415.51 151.65C415.26 151.98 414.9 152.28 414.43 152.54C413.96 152.8 413.34 152.93 412.56 152.93L412.55 152.92ZM412.8 151.25C413.55 151.25 414.18 151.05 414.7 150.66C415.22 150.26 415.61 149.72 415.88 149.02C416.15 148.32 416.28 147.51 416.28 146.59C416.28 145.67 416.15 144.89 415.88 144.21C415.62 143.52 415.23 142.99 414.71 142.61C414.19 142.23 413.56 142.03 412.79 142.03C412.02 142.03 411.34 142.23 410.81 142.64C410.29 143.04 409.9 143.59 409.63 144.28C409.37 144.97 409.24 145.73 409.24 146.59C409.24 147.45 409.37 148.24 409.64 148.95C409.91 149.65 410.31 150.21 410.83 150.63C411.36 151.04 412.01 151.25 412.79 151.25H412.8ZM421.79 152.67V140.53H423.66V152.67H421.79ZM422.74 138.5C422.38 138.5 422.06 138.38 421.8 138.13C421.54 137.88 421.41 137.58 421.41 137.24C421.41 136.9 421.54 136.59 421.8 136.35C422.06 136.1 422.38 135.98 422.74 135.98C423.1 135.98 423.42 136.1 423.67 136.35C423.93 136.6 424.06 136.9 424.06 137.24C424.06 137.58 423.93 137.89 423.67 138.13C423.41 138.38 423.1 138.5 422.74 138.5ZM431.97 157.48C431.07 157.48 430.29 157.36 429.65 157.13C429 156.9 428.46 156.6 428.03 156.23C427.6 155.86 427.26 155.47 427.01 155.04L428.5 154C428.67 154.22 428.88 154.47 429.14 154.76C429.4 155.05 429.75 155.3 430.2 155.51C430.65 155.73 431.25 155.83 431.98 155.83C432.96 155.83 433.77 155.59 434.41 155.12C435.05 154.65 435.37 153.9 435.37 152.89V150.42H435.21C435.07 150.64 434.88 150.92 434.63 151.24C434.38 151.56 434.02 151.85 433.55 152.1C433.09 152.35 432.46 152.47 431.67 152.47C430.69 152.47 429.81 152.24 429.03 151.77C428.26 151.31 427.64 150.63 427.19 149.75C426.74 148.86 426.52 147.79 426.52 146.52C426.52 145.25 426.74 144.19 427.18 143.27C427.62 142.34 428.23 141.63 429 141.12C429.78 140.61 430.68 140.35 431.71 140.35C432.5 140.35 433.13 140.48 433.59 140.75C434.06 141.01 434.42 141.3 434.67 141.64C434.92 141.97 435.12 142.24 435.25 142.45H435.44V140.52H437.24V153.01C437.24 154.05 437 154.9 436.53 155.56C436.06 156.22 435.43 156.7 434.63 157.01C433.84 157.32 432.96 157.48 431.99 157.48H431.97ZM431.91 150.8C432.66 150.8 433.29 150.63 433.81 150.29C434.33 149.95 434.72 149.45 434.99 148.81C435.26 148.17 435.39 147.4 435.39 146.5C435.39 145.6 435.26 144.85 434.99 144.18C434.73 143.51 434.34 142.99 433.82 142.61C433.3 142.23 432.67 142.04 431.9 142.04C431.13 142.04 430.45 142.24 429.92 142.64C429.4 143.04 429.01 143.58 428.74 144.25C428.48 144.92 428.35 145.67 428.35 146.5C428.35 147.33 428.48 148.09 428.75 148.74C429.02 149.38 429.42 149.89 429.94 150.26C430.47 150.62 431.12 150.81 431.9 150.81L431.91 150.8ZM440.64 152.67V140.53H442.51V152.67H440.64ZM441.59 138.5C441.23 138.5 440.91 138.38 440.65 138.13C440.39 137.88 440.26 137.58 440.26 137.24C440.26 136.9 440.39 136.59 440.65 136.35C440.91 136.1 441.23 135.98 441.59 135.98C441.95 135.98 442.26 136.1 442.52 136.35C442.78 136.6 442.92 136.9 442.92 137.24C442.92 137.58 442.79 137.89 442.52 138.13C442.26 138.38 441.95 138.5 441.59 138.5ZM451.21 140.52V142.1H444.92V140.52H451.21ZM446.75 137.62H448.62V149.2C448.62 149.73 448.7 150.12 448.85 150.39C449.01 150.65 449.21 150.82 449.45 150.91C449.7 150.99 449.96 151.04 450.23 151.04C450.44 151.04 450.6 151.03 450.74 151.01C450.87 150.98 450.98 150.96 451.06 150.95L451.44 152.63C451.32 152.68 451.14 152.72 450.91 152.77C450.68 152.82 450.4 152.85 450.05 152.85C449.52 152.85 449.01 152.74 448.5 152.51C448 152.28 447.58 151.94 447.25 151.47C446.92 151.01 446.76 150.42 446.76 149.71V137.63L446.75 137.62ZM457.59 152.95C456.82 152.95 456.12 152.81 455.5 152.52C454.87 152.22 454.37 151.8 454.01 151.25C453.64 150.69 453.45 150.02 453.45 149.23C453.45 148.53 453.59 147.97 453.86 147.54C454.14 147.1 454.5 146.76 454.96 146.51C455.42 146.26 455.92 146.08 456.48 145.96C457.04 145.83 457.6 145.73 458.17 145.66C458.91 145.57 459.51 145.49 459.97 145.45C460.43 145.4 460.77 145.31 460.98 145.19C461.2 145.07 461.31 144.86 461.31 144.56V144.5C461.31 143.72 461.09 143.11 460.67 142.68C460.25 142.25 459.61 142.03 458.75 142.03C457.89 142.03 457.16 142.22 456.65 142.62C456.14 143.01 455.79 143.43 455.58 143.87L453.81 143.24C454.13 142.5 454.55 141.93 455.07 141.52C455.6 141.1 456.18 140.81 456.81 140.65C457.44 140.48 458.06 140.4 458.68 140.4C459.07 140.4 459.52 140.45 460.02 140.54C460.53 140.63 461.03 140.82 461.5 141.1C461.98 141.38 462.38 141.81 462.69 142.39C463.01 142.96 463.16 143.73 463.16 144.7V152.7H461.29V151.06H461.19C461.06 151.32 460.85 151.61 460.56 151.91C460.27 152.21 459.87 152.47 459.38 152.68C458.89 152.89 458.29 153 457.58 153L457.59 152.95ZM457.87 151.28C458.61 151.28 459.23 151.13 459.74 150.85C460.25 150.56 460.64 150.19 460.89 149.73C461.15 149.27 461.29 148.79 461.29 148.28V146.57C461.21 146.66 461.04 146.75 460.77 146.83C460.51 146.9 460.2 146.97 459.85 147.03C459.51 147.08 459.17 147.13 458.85 147.17C458.53 147.21 458.27 147.24 458.07 147.26C457.59 147.32 457.13 147.43 456.71 147.57C456.29 147.71 455.96 147.92 455.7 148.19C455.45 148.46 455.32 148.84 455.32 149.31C455.32 149.96 455.56 150.45 456.04 150.78C456.53 151.11 457.14 151.27 457.88 151.27L457.87 151.28ZM468.43 136.48V152.67H466.56V136.48H468.43Z" fill="white"/>
</svg>
