<svg width="249" height="300" viewBox="0 0 249 300" fill="none" xmlns="http://www.w3.org/2000/svg">
<path fill-rule="evenodd" clip-rule="evenodd" d="M118.39 73.34C116.55 76.2 114.17 79.02 110.4 77.61C107.61 76.56 105.7 76.96 103.48 78.37C102.76 78.82 101.79 78.88 100.16 79.33C105.93 74.92 110.22 68.81 118.39 73.34Z" fill="white"/>
<path fill-rule="evenodd" clip-rule="evenodd" d="M147.26 76.12C147.97 81.64 148.62 86.72 149.29 91.94C159.76 94.51 170.26 97.25 179.17 104.04C169.31 100.11 159.2 97.41 148.68 96.65C147.49 100.19 146.86 103.65 145.2 106.51C143.43 109.54 144.04 111.44 145.98 113.98C151.15 120.73 154.22 128.45 155.84 136.26C152.2 130.82 148.45 125.05 144.5 119.42C142.1 116.01 139.43 112.66 134.49 116.71C144.82 103.39 148.59 89.53 140.75 73.67C155.08 68.31 169.18 64.97 183.99 70.57C170.99 68.44 158.74 70.8 147.27 76.12" fill="white"/>
<path fill-rule="evenodd" clip-rule="evenodd" d="M125.23 0C93.55 0 63.45 6.26 36.23 17.49V54.71C36.23 83.71 43.2899 116.04 62.7699 143.39C77.8399 164.56 99.38 178.24 125.23 189.95C151.09 178.24 172.62 164.56 187.7 143.39C207.18 116.03 214.24 83.71 214.24 54.71V17.49C187.02 6.25 156.91 0 125.23 0ZM141.01 151.82C144.12 143.65 143.17 136.11 137.39 129.56C133.85 125.54 129.97 121.82 125.61 117.31C126.86 120.53 127.84 123.08 129.05 126.23C125.94 125.79 122.93 126.08 120.69 124.91C115.37 122.12 111.31 124.46 107.11 127.13C106.29 127.65 105.45 128.15 104.22 128.9C104.2 122.33 105.06 117.17 111.23 113.91C115.92 111.44 118.97 107.02 121.06 102.32C117.14 105.69 113.17 109.12 110.13 111.73L107.18 113.84C93.9899 122.51 67.44 119.09 60.73 101.8C71.68 110.28 83.1599 111.75 94.6499 107.57C94.6499 107.57 94.7299 107.54 94.8799 107.47C98.8599 105.76 101.87 102.44 103.46 98.42C103.59 98.1 103.73 97.77 103.91 97.41C101.82 98.26 100.13 99.52 98.6299 100.98C93.1499 106.28 86.5999 108.51 80.9399 103.49C64.3599 88.78 63.3199 61.63 78.8199 48.21C78.8199 48.21 87.8099 40.03 100.9 40.03L127.06 39.21C127.06 39.21 136.06 35.12 124.61 28.58H129.06C129.06 28.58 132.68 29.22 136.49 31.76C139.03 31.76 142.6 30.49 142.6 30.49V33.51C142.6 37.42 140.98 41.14 138.13 43.81C135.35 46.41 131.29 49.1 126.03 49.71C124.87 49.85 123.69 49.81 122.53 49.71C118.37 49.37 104.81 48.82 94.3199 54.97C75.8599 65.79 84.1899 84.13 89.4199 81.23C94.2599 78.54 96.8899 74.66 99.7599 70.76C100.9 69.22 102.22 67.81 103.69 66.58C103.73 66.54 103.78 66.51 103.83 66.47C108.99 62.18 114.79 58.67 121.08 56.33C125.6 54.65 130.16 53.61 135.49 54.5C129.87 56.06 126.97 59.03 125.69 60.76C125.19 61.44 125.51 62.39 126.31 62.64C129.01 63.48 135.16 64.77 142.37 62.09C145.41 61.46 148.36 60.31 151.33 59.31C160.16 56.34 168.83 56.28 177.67 59.67C183.49 61.9 187.42 65.09 187.96 71.68C188.4 77.09 189.74 82.48 189.7 87.87C189.7 87.87 189.72 138.93 141.03 151.82" fill="white"/>
<path d="M56.7698 237.19V246.54H19.3398V204.94H36.8798V237.19H56.7698Z" fill="white"/>
<path d="M78.4299 204.94H60.8799V246.54H78.4299V204.94Z" fill="white"/>
<path d="M125.12 225.25C128.16 223.94 129.1 221.74 129.1 218.53V214.65C129.1 207.75 124.79 204.94 107.85 204.94H84.0298V246.54H107.93C124.88 246.54 129.56 243.68 129.56 236.79V232.12C129.56 228.82 128.47 226.57 125.12 225.26M101.58 213.75H107.58C110.53 213.75 111.67 214.23 111.67 215.7V219.58C111.67 221.09 110.53 221.57 107.58 221.57H101.58V213.75ZM112.02 235.74C112.02 237.25 110.88 237.73 107.94 237.73H101.59V229.03H107.94C110.89 229.03 112.02 229.6 112.02 231.07V235.74Z" fill="white"/>
<path d="M172.56 231.08C177.59 229.43 179.29 226.53 179.29 222.36V215.29C179.29 208.35 174.61 204.94 157.66 204.94H134.81V246.54H152.35V232.71H155.17L161.04 246.54H179.47L172.55 231.08H172.56ZM161.74 221.33C161.74 222.88 160.6 223.36 157.66 223.36H152.36V214.28H157.66C160.61 214.28 161.74 214.8 161.74 216.32V221.33Z" fill="white"/>
<path d="M215.64 204.94H195.43L180.15 246.54H197.27L199.09 240.42H211.41L213.08 246.54H231.1L215.64 204.94ZM201.88 231.07L205.53 218.83L208.87 231.07H201.89H201.88Z" fill="white"/>
<path d="M28.5299 272.42V268.29C28.5299 266.45 27.3199 265.76 23.0399 265.76C18.7599 265.76 17.5499 266.44 17.5499 268.29V287.24C17.5499 289.08 18.7599 289.77 23.1399 289.77C27.5199 289.77 28.73 289.09 28.73 287.24V282.87H23.1499V275.63H46.08V288.27C46.08 295.27 41.0599 299.39 23.0399 299.39C5.01992 299.39 0 295.27 0 288.27V267.26C0 260.26 5.01992 256.14 23.0399 256.14C41.0599 256.14 46.08 260.26 46.08 267.26V272.41H28.5299V272.42Z" fill="white"/>
<path d="M96.0898 256.96V288.23C96.0898 295.29 91.0598 299.39 73.7098 299.39C56.3598 299.39 51.3398 295.29 51.3398 288.23V256.96H68.8898V287.2C68.8898 289.1 70.1098 289.77 73.7198 289.77C77.3298 289.77 78.5498 289.11 78.5498 287.2V256.96H96.0999H96.0898Z" fill="white"/>
<path d="M134.41 256.96H114.2L98.9199 298.56H116.04L117.86 292.44H130.18L131.85 298.56H149.87L134.41 256.96ZM120.65 283.1L124.3 270.86L127.64 283.1H120.66H120.65Z" fill="white"/>
<path d="M190.8 283.1C195.83 281.45 197.53 278.55 197.53 274.38V267.31C197.53 260.37 192.85 256.96 175.9 256.96H153.05V298.56H170.59V284.73H173.41L179.28 298.56H197.71L190.79 283.1H190.8ZM179.98 273.36C179.98 274.91 178.84 275.39 175.9 275.39H170.6V266.31H175.9C178.85 266.31 179.98 266.83 179.98 268.35V273.36Z" fill="white"/>
<path d="M224.96 256.96H202.97V298.56H224.96C243.01 298.56 248.04 294.72 248.04 287.71V267.81C248.04 260.8 243.01 256.96 224.96 256.96ZM230.49 286.69C230.49 288.54 229.27 289.21 224.96 289.21H220.52V266.31H224.96C229.28 266.31 230.49 266.98 230.49 268.84V286.69Z" fill="white"/>
</svg>
