<svg width="278" height="383" viewBox="0 0 278 383" fill="none" xmlns="http://www.w3.org/2000/svg">
<path d="M35.2402 358.231H37.1902V360.481C38.4702 358.981 40.9402 357.891 43.3802 357.891C48.2602 357.891 51.2603 361.421 51.2603 366.411C51.2603 371.401 47.8402 375.451 42.5902 375.451C40.5202 375.451 38.5702 375.041 37.1902 374.021V382.611H35.2402V358.221V358.231ZM37.1902 362.361V372.081C38.9502 373.241 40.6402 373.621 42.4402 373.621C46.5302 373.621 49.1902 370.651 49.1902 366.531C49.1902 362.411 46.9002 359.741 42.8502 359.741C40.4902 359.741 38.2703 360.981 37.1803 362.371" fill="white"/>
<path d="M59.77 358.241H61.72V360.491C62.66 359.061 64.05 357.941 66.26 357.941C67.65 357.941 68.33 358.161 68.89 358.581L68.21 360.421C67.39 359.931 66.93 359.781 65.85 359.781C63.63 359.781 62.51 361.171 61.72 362.521V375.131H59.77V358.251V358.241Z" fill="white"/>
<path d="M83.5201 357.901C88.7701 357.901 92.3801 361.621 92.3801 366.681C92.3801 371.741 88.7801 375.461 83.5201 375.461C78.2601 375.461 74.6602 371.751 74.6602 366.681C74.6602 361.611 78.2601 357.901 83.5201 357.901ZM83.5201 373.621C87.5001 373.621 90.3102 370.771 90.3102 366.681C90.3102 362.591 87.5001 359.741 83.5201 359.741C79.5401 359.741 76.7301 362.591 76.7301 366.681C76.7301 370.771 79.5801 373.621 83.5201 373.621Z" fill="white"/>
<path d="M113.76 372.721C112.45 374.221 110.38 375.421 107.94 375.421C102.95 375.421 99.6802 372.001 99.6802 366.751C99.6802 361.501 103.62 357.901 108.87 357.901C110.82 357.901 112.36 358.351 113.75 359.361V348.851H115.7V375.121H113.75V372.721H113.76ZM113.76 370.921V361.281C112.03 360.121 110.49 359.741 108.92 359.741C104.98 359.741 101.75 362.511 101.75 366.681C101.75 370.851 104.45 373.591 108.32 373.591C110.57 373.591 112.67 372.201 113.76 370.921Z" fill="white"/>
<path d="M139.84 375.121H137.89V372.451C136.61 374.031 134.18 375.451 131.47 375.451C127.38 375.451 125.01 373.121 125.01 368.021V358.231H126.96V367.611C126.96 371.551 128.54 373.611 132.18 373.611C134.54 373.611 136.8 372.111 137.88 370.681V358.231H139.83V375.111L139.84 375.121Z" fill="white"/>
<path d="M163.66 372.721C162.23 374.521 159.76 375.461 157.28 375.461C152.06 375.461 148.35 372.011 148.35 366.681C148.35 361.761 151.95 357.901 156.75 357.901C159.38 357.901 161.7 358.461 163.32 360.001L162.38 361.581C160.88 360.231 159 359.741 157.05 359.741C153.49 359.741 150.41 362.671 150.41 366.681C150.41 370.961 153.49 373.621 157.43 373.621C159.61 373.621 161.52 372.641 162.68 371.291L163.66 372.711V372.721Z" fill="white"/>
<path d="M171.32 353.541H173.27V358.231H180.06V360.071H173.27V368.401C173.27 371.701 174.36 373.511 177.06 373.511C178.19 373.511 179.16 373.061 179.76 372.611L180.4 374.151C179.61 374.791 178.23 375.351 176.61 375.351C172.86 375.351 171.32 373.021 171.32 368.711V353.551V353.541Z" fill="white"/>
<path d="M190.49 350.431C191.13 350.431 191.77 350.921 191.77 351.671C191.77 352.531 191.13 353.061 190.49 353.061C189.74 353.061 189.1 352.531 189.1 351.671C189.1 350.921 189.74 350.431 190.49 350.431ZM189.44 358.241H191.39V375.121H189.44V358.241Z" fill="white"/>
<path d="M209.7 357.901C214.95 357.901 218.56 361.621 218.56 366.681C218.56 371.741 214.96 375.461 209.7 375.461C204.44 375.461 200.84 371.751 200.84 366.681C200.84 361.611 204.44 357.901 209.7 357.901ZM209.7 373.621C213.68 373.621 216.49 370.771 216.49 366.681C216.49 362.591 213.68 359.741 209.7 359.741C205.72 359.741 202.91 362.591 202.91 366.681C202.91 370.771 205.76 373.621 209.7 373.621Z" fill="white"/>
<path d="M227.07 358.241H229.02V360.601C230.3 359.141 232.7 357.941 235.1 357.941C239.68 357.941 242.15 360.191 242.15 365.481V375.121H240.2V365.851C240.2 361.721 238.4 359.771 234.65 359.771C232.32 359.771 230.15 361.011 229.02 362.361V375.121H227.07V358.241Z" fill="white"/>
<path d="M62.5 311.051C62.5 319.241 55.8601 325.871 47.6801 325.871H0V238.781C9.76 238.781 17.67 246.691 17.67 256.451V311.051H62.51H62.5Z" fill="white"/>
<path d="M78.1499 325.871V256.571C78.1499 246.741 86.1098 238.781 95.9398 238.781V308.081C95.9398 317.901 87.9799 325.871 78.1499 325.871Z" fill="white"/>
<path d="M192.54 238.791V317.231C192.54 322.011 188.67 325.881 183.89 325.881L131.89 271.031V308.211C131.89 317.961 123.98 325.881 114.22 325.881V247.441C114.22 242.671 118.09 238.791 122.87 238.791L174.75 293.641V256.581C174.75 246.761 182.71 238.791 192.54 238.791Z" fill="white"/>
<path d="M277.39 325.871H231.71C220.03 325.871 210.56 316.401 210.56 304.721V238.781H259.48C267.94 238.781 274.8 245.641 274.8 254.101H227.73V276.211H252.31C260.5 276.211 267.13 282.851 267.13 291.031H227.72V310.551H262.06C270.52 310.551 277.38 317.411 277.38 325.871" fill="white"/>
<path d="M234.63 88.5606C234.59 87.6406 234.26 86.9106 234.01 86.1206C233.62 85.4306 233.3 84.6406 232.76 84.0806C232.28 83.4506 231.75 82.8906 231.17 82.4206C230.62 81.8806 230 81.5106 229.4 81.0806C226.95 79.4906 224.33 78.5106 221.71 77.7006C219.09 76.8906 216.44 76.2806 213.79 75.8006C208.49 74.8006 203.17 74.2106 197.86 73.7606C192.55 73.3106 187.25 73.0106 181.95 72.7906C160.76 71.9406 139.71 72.1306 118.81 71.6106C108.36 71.3406 97.9498 70.9306 87.6398 69.9606C82.4898 69.4606 77.3598 68.8306 72.3298 67.8606C67.3198 66.8906 62.3199 65.6306 57.9299 63.4406C55.7599 62.3506 53.7398 60.9606 52.4498 59.1906C51.1498 57.4506 50.6599 55.2806 51.0599 53.1406C51.1799 52.4906 51.3198 51.8706 51.4598 51.3606C51.6198 50.8106 51.7998 50.2406 52.0198 49.7106C52.4598 48.6306 53.0198 47.6206 53.6998 46.7006C55.0698 44.8606 56.9398 43.4106 59.0698 42.3606C62.6698 40.6106 66.7998 39.8706 70.9698 39.6006C70.9998 39.8006 71.0298 40.0006 71.0698 40.2006C71.6598 42.9006 73.2698 45.3306 75.2598 47.0806C77.2498 48.8606 79.5498 50.1006 81.8798 51.0806C84.2198 52.0506 86.6299 52.7106 89.0499 53.2906C93.8899 54.3806 98.7799 54.9606 103.67 55.3206C113.45 56.0206 123.24 55.9206 133.03 55.6606C137.55 55.5306 142.07 55.3506 146.6 55.1606C153.52 57.6006 160.45 59.9606 167.42 62.1406C175.73 64.7106 184.11 67.0706 192.69 68.5906C197.1 69.7206 201.55 70.7306 206.07 71.5106C208.59 71.9206 211.13 72.2606 213.73 72.3606C215.03 72.4106 216.35 72.4006 217.7 72.2706C219.04 72.1406 220.42 71.8906 221.8 71.3306C222.49 71.0306 223.18 70.6706 223.82 70.1506C224.45 69.6306 225.01 68.9706 225.41 68.2206C225.81 67.4506 226.03 66.7006 226.11 65.8406C226.16 65.2006 226.27 64.6706 226.19 63.8006C226.17 62.1806 225.63 60.7706 224.87 59.4506C224.45 58.8206 224.02 58.2106 223.49 57.7106C223.12 57.2906 222.69 56.9506 222.26 56.6306C222.25 55.9006 222.19 55.1706 222.08 54.4406C221.68 51.9006 220.53 49.4906 218.94 47.5506C217.35 45.5906 215.41 44.0506 213.38 42.7706C211.34 41.5006 209.19 40.4806 207.02 39.6106C205.61 39.0506 204.18 38.5506 202.74 38.1006C202.79 37.9406 202.85 37.7906 202.9 37.6306C203.04 37.1406 203.13 36.7906 203.21 36.1706C203.25 35.7706 203.29 35.3306 203.19 34.6906C203.11 34.1106 202.93 33.6206 202.68 33.1506C202.2 32.1806 201.42 31.5206 200.66 30.9506C199.08 29.8706 197.38 29.2806 195.7 28.7906C194.01 28.3206 192.31 27.9806 190.61 27.7306C187.21 27.2206 183.83 26.9506 180.47 26.7606C167.01 26.1006 153.82 26.4906 140.89 26.3506C134.43 26.2906 128.03 26.1506 121.72 25.6706C118.57 25.4206 115.44 25.0906 112.37 24.5906C109.31 24.0606 106.27 23.4006 103.5 22.2306C102.12 21.6506 100.8 20.9406 99.7398 20.0006C98.6798 19.0706 97.9198 17.9006 97.6998 16.5806C97.6198 16.2606 97.6498 15.9106 97.6198 15.5806C97.6198 15.2406 97.6798 14.9006 97.7098 14.5606C97.7698 14.2106 97.8298 14.1206 97.9898 13.8706C98.1398 13.6606 98.3598 13.4706 98.6198 13.2906C99.6898 12.6006 101.18 12.2906 102.63 12.0906C105.57 11.7106 108.6 11.7806 111.6 11.9206C113.17 12.0006 114.73 12.1206 116.29 12.2606C116.78 13.3206 117.54 14.2606 118.44 14.9806C119.44 15.7906 120.59 16.3606 121.76 16.8106C124.12 17.6706 126.59 18.0706 129.06 18.2906C131.54 18.5206 134.03 18.5506 136.53 18.5106C141.5 18.4106 146.49 18.0106 151.54 17.5506C152.79 17.7706 154.05 18.0006 155.3 18.2306C160.95 19.2706 166.55 20.3006 172.08 21.3206C174.85 21.8206 177.61 22.3006 180.36 22.7406C183.12 23.1706 185.86 23.6006 188.66 23.7706C189.37 23.8006 190.07 23.8306 190.85 23.7406C191.23 23.5906 191.69 23.8406 192.32 22.9006C192.49 22.1706 192.43 22.1206 192.5 21.6806C192.5 20.8806 192.46 20.0906 192.17 19.3506C191.93 18.6006 191.46 17.9306 190.93 17.3806C189.82 16.2906 188.45 15.6806 187.11 15.2706C186.07 14.9606 185.02 14.7506 183.98 14.6006C183.98 14.5606 183.98 14.5306 183.98 14.4906C183.97 13.9106 183.8 13.3906 183.59 12.8906C183.12 11.8906 182.3 11.1606 181.46 10.5906C180.6 10.0306 179.69 9.60063 178.76 9.27063C176.01 8.30063 173.22 7.81063 170.46 7.48063C170.79 7.33063 171.11 7.12063 171.33 6.79063C171.62 6.36063 171.68 5.74063 171.39 5.29063C170.81 4.43063 169.9 4.14063 169.1 3.82063C167.45 3.27063 165.84 3.00063 164.31 2.77063C162.78 2.55063 161.33 2.39063 159.95 2.25063C154.46 1.75063 150.29 1.55063 147.51 1.26063C146.12 1.12063 145.08 0.970629 144.42 0.790629C144.09 0.700629 143.86 0.600629 143.76 0.510629C143.67 0.420629 143.71 0.430629 143.7 0.420629C143.72 0.340629 143.66 0.250629 143.57 0.240629C143.49 0.230629 143.41 0.280629 143.39 0.370629C143.39 0.350629 143.35 0.580629 143.54 0.740629C143.71 0.890629 143.98 1.00063 144.33 1.09063C145.03 1.28063 146.08 1.44063 147.47 1.59063C150.26 1.90063 154.43 2.11063 159.91 2.63063C161.28 2.77063 162.73 2.93063 164.25 3.16063C165.76 3.40063 167.37 3.67063 168.96 4.21063C169.72 4.49063 170.59 4.84063 171.02 5.50063C171.23 5.81063 171.18 6.23063 170.97 6.56063C170.76 6.88063 170.36 7.09063 169.94 7.22063C169.74 7.28063 169.54 7.32063 169.34 7.36063C168.72 7.29063 168.1 7.23063 167.49 7.17063C165.11 6.96063 162.76 6.83063 160.43 6.73063C153.34 5.52063 145.46 3.44063 136.61 1.64063C133.99 1.12063 131.29 0.610629 128.47 0.270629C127.06 0.100629 125.63 -0.00937059 124.16 0.00062941C123.42 0.0206294 122.68 0.0706294 121.93 0.230629C121.2 0.400629 120.39 0.640629 119.82 1.34063C119.54 1.73063 119.39 2.12063 119.4 2.56063C119.38 3.00063 119.53 3.46063 119.8 3.80063C120.16 4.28063 120.63 4.60063 121.13 4.85063C120.02 4.76063 118.9 4.70063 117.7 4.98063C117.07 5.17063 116.34 5.41063 115.9 6.29063C115.77 6.55063 115.7 6.96063 115.67 7.27063C115.64 7.58063 115.58 7.88063 115.57 8.19063C115.51 8.98063 115.57 9.79063 115.73 10.5906C114.38 10.4706 113.03 10.3706 111.67 10.3006C108.62 10.1506 105.54 10.0706 102.4 10.4606C100.84 10.6906 99.2199 10.9506 97.6799 11.9206C97.2999 12.1706 96.9298 12.4906 96.6298 12.9006C96.3298 13.2706 96.0899 13.9106 96.0399 14.3206C95.9999 14.7506 95.9399 15.1706 95.9299 15.6006C95.9599 16.0306 95.9299 16.4706 96.0299 16.9006C96.3199 18.6506 97.3498 20.2106 98.6198 21.3106C99.8898 22.4306 101.36 23.2006 102.84 23.8406C105.83 25.1106 108.96 25.7806 112.09 26.3306C115.23 26.8606 118.4 27.2006 121.59 27.4606C127.96 27.9606 134.4 28.1206 140.88 28.2006C153.84 28.3706 167.04 28.0206 180.37 28.7106C183.7 28.9106 187.03 29.1806 190.32 29.6906C191.97 29.9406 193.59 30.2706 195.17 30.7106C196.74 31.1606 198.28 31.7306 199.52 32.5906C200.11 33.0306 200.67 33.5206 200.94 34.1006C201.09 34.3706 201.21 34.7106 201.24 34.9706C201.3 35.1806 201.3 35.5906 201.24 36.0406C201.21 36.2706 201.11 36.7506 201.01 37.0906C200.96 37.2506 200.91 37.4006 200.86 37.5506C198.48 36.8706 196.08 36.3106 193.68 35.8106C189.18 34.8906 184.65 34.2406 180.13 33.7106C171.09 32.6806 162.06 32.2006 153.08 31.9306C144.1 31.6606 135.17 31.6306 126.29 31.6706C122.3 31.6906 118.32 31.7206 114.35 31.7506C110.3 29.8706 106.2 28.0706 102 26.4306C97.9298 24.8906 93.7798 23.4406 89.3298 22.6606C87.1098 22.3006 84.7898 22.0906 82.3698 22.5006C81.1698 22.7706 79.9198 23.1306 78.8298 23.9306C78.2498 24.2606 77.8198 24.8006 77.3398 25.2706C77.0798 25.6806 76.7899 26.0406 76.5499 26.4606C76.5399 26.4606 76.5298 26.4606 76.5198 26.4606C75.5398 26.4106 74.5599 26.3606 73.4299 26.5406C72.8799 26.6706 72.1998 26.7206 71.4498 27.5506C70.8198 28.6506 71.0998 28.9906 70.9498 29.5106C70.8798 30.0106 70.8298 30.5106 70.8598 31.0306C70.8798 31.5406 70.8199 32.0606 70.9199 32.5706C70.9499 32.9506 71.0098 33.3206 71.0898 33.6906C71.0298 33.8906 70.9898 34.0706 70.9798 34.2106L70.7598 36.1706C70.7598 36.2206 70.7598 36.2706 70.7598 36.3206C66.3298 36.6106 61.8398 37.3806 57.6198 39.4206C55.1298 40.6506 52.7898 42.4206 51.0798 44.7406C50.2198 45.8906 49.5198 47.1506 48.9898 48.4706C48.7098 49.1306 48.4999 49.7906 48.2999 50.4906C48.0899 51.2306 47.9598 51.8706 47.8398 52.4906C47.7498 53.3006 47.6698 53.9906 47.6498 54.7506C47.7298 55.5106 47.6899 56.2806 47.9199 57.0206C48.0999 57.7706 48.2899 58.5106 48.6599 59.1906C48.9499 59.9106 49.3699 60.5306 49.8099 61.1406C51.5999 63.5606 54.0198 65.1406 56.4498 66.3806C59.3998 67.8406 62.4599 68.8806 65.5499 69.7006C63.8899 69.7906 62.2099 70.0306 60.5599 70.5606C59.8399 70.8506 59.0899 71.0306 58.4099 71.4506C57.6999 71.8006 57.0299 72.2206 56.4299 72.7506C55.9699 73.0606 55.6098 73.4706 55.2498 73.8806C54.4498 74.5106 53.7599 75.3706 53.3999 76.5606C53.3599 76.6706 53.3199 76.8306 53.2899 77.0106C53.0399 77.6006 52.7698 78.2206 52.6998 78.7206C52.5798 79.3606 52.2899 80.0706 52.2799 81.1106C52.2799 82.0706 52.5899 83.0106 53.0499 83.7706C53.4999 84.5406 54.0799 85.1506 54.6699 85.6806C57.0999 87.7406 59.8198 88.8206 62.5198 89.8206C67.9498 91.7306 73.4899 92.9106 79.0399 93.9806C90.1499 96.0406 101.34 97.4006 112.54 98.6306C114.22 98.8106 115.91 98.9906 117.6 99.1606C120.46 99.5606 123.31 99.9506 126.17 100.321C134.36 101.391 142.57 102.381 150.79 103.321C153.78 104.681 156.78 106.031 159.79 107.361C156.05 107.501 152.3 107.691 148.57 107.921C141.65 108.361 134.75 108.941 127.86 109.531C125.73 109.331 123.6 109.131 121.47 108.941C116.68 107.531 111.9 106.111 107.11 104.701C96.2098 101.521 85.3098 98.3106 74.1898 95.7806C68.6198 94.5706 63.0099 93.4006 57.1599 93.2306C56.6199 93.2306 56.0799 93.2306 55.5399 93.2506C53.8399 92.9106 52.1299 92.6106 50.4099 92.3906C47.5699 92.0606 44.6598 91.7806 41.7198 92.3906C40.9898 92.5606 40.2499 92.8006 39.5599 93.2006C38.8699 93.5906 38.2298 94.1706 37.8298 94.9106C37.4798 95.6506 37.1099 96.4506 37.5299 97.5006C37.9599 98.3706 38.6499 98.8206 39.2899 99.2306C40.6099 100.001 41.9798 100.461 43.3598 100.891C44.6998 101.301 46.0599 101.631 47.4199 101.931C47.4599 102.241 47.5098 102.551 47.5898 102.851C47.6398 103.221 47.7398 103.571 47.8698 103.911C47.6498 104.491 47.5099 105.031 47.4299 105.701C47.3399 106.571 47.6598 107.441 48.1298 108.071C48.5998 108.721 49.1698 109.211 49.7598 109.631C49.7598 109.631 49.7799 109.631 49.7799 109.641C49.3499 110.061 48.9498 110.511 48.5898 111.011C48.1798 111.621 47.8199 112.261 47.5599 112.951C47.2699 113.731 47.1198 114.311 47.0198 115.051C46.9798 115.761 46.8099 116.451 46.9099 117.181C46.9299 117.901 47.0098 118.621 47.2298 119.321C47.2298 119.371 47.2498 119.411 47.2598 119.461C46.7798 120.211 46.3798 121.021 46.0698 121.871C45.3198 123.971 44.9598 126.201 45.0798 128.451C45.1598 130.701 45.8298 132.951 46.8998 134.931C47.9998 136.901 49.4898 138.591 51.1498 140.001C54.4898 142.821 58.3699 144.671 62.2799 146.161C63.2499 146.521 64.2298 146.861 65.2098 147.181C65.1298 147.461 65.0398 147.751 64.9798 148.041C64.8998 148.421 64.7999 148.891 64.7799 149.401C64.7099 149.881 64.7398 150.381 64.8198 150.881C64.8398 151.391 65.0898 151.861 65.2398 152.341C65.4698 152.781 65.7199 153.231 66.0299 153.611C67.2899 155.141 68.9499 156.001 70.5599 156.661C72.1899 157.331 73.8598 157.741 75.5198 158.091C78.8498 158.771 82.1798 159.121 85.4898 159.361C92.1098 159.811 98.6698 159.821 105.15 159.771C118.12 159.631 130.82 159.131 143.28 159.071C149.51 159.041 155.67 159.101 161.76 159.401C167.84 159.711 173.86 160.241 179.68 161.391C182.58 161.971 185.43 162.731 188.11 163.821C190.78 164.891 193.28 166.401 195.03 168.501C195.86 169.581 196.45 170.791 196.77 172.091C197.06 173.431 197.03 174.661 196.84 176.171C196.64 177.451 196.22 178.841 195.65 180.041C195.05 181.261 194.27 182.371 193.29 183.301C191.36 185.191 188.79 186.351 186.13 187.041C183.46 187.721 180.68 187.971 177.91 188.021C174.2 188.061 170.5 187.741 166.85 187.231C167.55 186.831 168.22 186.271 168.59 185.461C168.7 185.221 168.74 185.041 168.81 184.711C168.87 184.531 168.7 183.961 168.49 183.831C168.07 183.431 167.62 183.291 167.19 183.151C165.45 182.661 163.72 182.561 161.96 182.441C160.2 182.341 158.43 182.301 156.64 182.281C152.63 182.241 148.52 182.281 144.34 182.341C139.63 181.051 135 179.661 130.44 178.241C120.45 175.111 110.8 171.781 101.35 168.651C96.6198 167.091 91.9498 165.581 87.2698 164.241C84.9298 163.581 82.5998 162.961 80.2398 162.461C77.8798 161.991 75.5098 161.531 73.0198 161.681C72.3998 161.731 71.7598 161.831 71.1198 162.081C70.4998 162.341 69.8198 162.791 69.5198 163.561C69.3598 163.941 69.3399 164.221 69.2899 164.551C69.2399 164.851 69.2198 165.161 69.1898 165.461C69.1598 166.071 69.1498 166.691 69.2198 167.301C69.4398 169.771 70.7099 172.051 72.4199 173.701C74.1299 175.371 76.1698 176.561 78.2498 177.511C80.3398 178.461 82.4898 179.161 84.6498 179.751C88.9698 180.911 93.3198 181.591 97.5898 182.101C101.87 182.601 106.09 182.891 110.25 183.091C118.56 183.481 126.59 183.471 134.32 183.391C136.97 183.361 139.57 183.321 142.16 183.281C148.35 185.041 154.68 186.641 161.21 187.871C161.34 187.891 161.47 187.921 161.6 187.941C158.39 188.361 155.2 188.391 152.09 188.371C148.97 188.331 145.93 188.201 142.96 188.041C137.02 187.691 131.39 187.361 126.07 187.051C120.74 186.781 115.71 186.611 110.99 186.861C108.63 187.001 106.35 187.241 104.2 187.871C103.14 188.201 102.08 188.621 101.24 189.371C100.82 189.741 100.49 190.231 100.3 190.771L100.2 191.151C100.16 191.351 100.18 191.521 100.25 191.691C100.39 192.011 100.63 192.191 100.85 192.351C101.77 192.941 102.75 193.201 103.7 193.471C104.65 193.721 105.59 193.921 106.51 194.101C108.35 194.451 110.13 194.721 111.82 194.961C115.2 195.431 118.27 195.771 121.01 196.091C126.48 196.711 130.63 197.191 133.38 197.681C134.49 197.881 135.41 198.021 136.05 198.221C136.11 198.121 136.13 198.081 136.21 198.011C135.54 197.791 134.7 197.461 133.51 197.251C130.75 196.751 126.53 196.361 121.06 195.721C118.33 195.391 115.26 195.031 111.89 194.551C110.2 194.301 108.44 194.031 106.61 193.671C105.7 193.491 104.77 193.291 103.84 193.031C102.92 192.771 101.94 192.481 101.15 191.971C100.97 191.831 100.79 191.681 100.73 191.521C100.7 191.451 100.7 191.361 100.71 191.301L100.81 190.931C100.97 190.501 101.23 190.101 101.61 189.771C102.36 189.111 103.36 188.711 104.38 188.401C106.45 187.811 108.72 187.581 111.05 187.451C115.73 187.221 120.75 187.411 126.06 187.711C131.38 188.041 137.01 188.401 142.94 188.771C145.91 188.941 148.96 189.081 152.09 189.141C155.22 189.181 158.44 189.161 161.73 188.741C162.43 188.641 163.13 188.521 163.83 188.361C168.43 189.121 173.13 189.661 177.93 189.621C180.78 189.581 183.68 189.331 186.52 188.611C189.35 187.881 192.19 186.641 194.4 184.491C195.51 183.431 196.41 182.161 197.09 180.781C197.75 179.381 198.2 177.961 198.45 176.371C198.65 175.011 198.72 173.291 198.37 171.761C198 170.221 197.29 168.761 196.33 167.501C194.82 165.671 192.91 164.321 190.87 163.271C191.92 163.391 192.97 163.491 194.03 163.561C196.54 163.671 199.09 163.621 201.64 163.181C203.16 162.921 204.7 162.511 206.16 161.881C208.38 162.341 210.62 162.741 212.94 162.991C213.91 163.081 214.89 163.151 215.93 163.101C216.45 163.081 216.98 163.021 217.56 162.881C218.12 162.721 218.83 162.511 219.42 161.751C219.99 160.741 219.9 160.301 219.81 159.471C219.67 158.761 219.29 158.131 218.87 157.681C218.01 156.761 217.03 156.291 216.09 155.871C215.23 155.521 214.38 155.251 213.53 155.031C213.69 154.711 213.84 154.391 213.97 154.071L214.63 152.191C214.83 151.561 214.93 150.921 215.09 150.281C215.27 149.661 215.29 148.801 215.34 148.291C215.29 147.591 215.28 146.641 214.99 145.991C214.98 145.941 214.96 145.901 214.94 145.851C215.57 145.411 216.16 144.931 216.72 144.401C216.98 144.441 217.25 144.481 217.51 144.511C218.9 144.661 220.3 144.771 221.75 144.611C222.4 144.521 223.08 144.401 223.73 144.061C223.8 144.061 223.87 144.081 223.95 144.081C224.68 144.101 225.32 144.221 226.33 143.881C227.98 142.901 227.29 141.781 227.39 141.101C227.28 140.301 226.98 139.541 226.57 138.891C226.09 138.141 225.5 137.521 224.87 136.981C224.49 135.791 223.91 134.661 223.14 133.681C222.72 133.131 222.26 132.621 221.77 132.141C221.7 131.851 221.62 131.561 221.51 131.281C220.94 129.841 219.94 128.691 218.84 127.731C217.96 126.971 217.02 126.331 216.04 125.751C216.2 125.671 216.36 125.591 216.52 125.511C217.1 125.511 217.68 125.511 218.27 125.481C221.16 125.321 224.21 124.741 226.89 123.071C227.58 122.701 228.14 122.111 228.76 121.621C229.28 121.031 229.85 120.451 230.27 119.781C230.66 119.101 231.14 118.451 231.37 117.711C231.67 116.991 231.96 116.271 232.09 115.531C232.09 115.251 233.01 113.601 231.57 112.171C230.7 111.451 230 111.221 229.28 110.921C227.86 110.401 226.48 110.051 225.1 109.731C219.59 108.501 214.1 107.751 208.61 106.991C208.41 106.961 208.22 106.941 208.02 106.921C204.35 106.151 200.66 105.551 196.97 104.991C191.36 104.161 185.75 103.471 180.13 102.831C170.05 101.701 159.98 100.731 149.91 99.7806C149.32 99.5106 148.72 99.2406 148.12 98.9706C138.61 94.6506 129.1 90.2606 119.5 86.0506C135.72 90.2606 151.89 94.5606 168.22 98.1206C178.76 100.391 189.36 102.421 200.13 103.431C205.52 103.911 210.96 104.151 216.45 103.621C219.19 103.351 221.95 102.871 224.65 101.931C227.32 100.991 230.04 99.5406 231.99 97.1306C232.96 95.9406 233.72 94.5606 234.17 93.1006C234.39 92.3206 234.58 91.7406 234.66 90.7806C234.72 90.1306 234.8 89.5006 234.66 88.5306M136.48 17.2606C134.01 17.3106 131.55 17.2906 129.14 17.0706C126.73 16.8606 124.34 16.4806 122.14 15.6806C120.31 15.0006 118.61 13.9206 117.64 12.3706C118.6 12.4606 119.57 12.5606 120.53 12.6706C129.42 13.7006 138.14 15.1406 146.71 16.6606C143.27 16.9506 139.87 17.1706 136.49 17.2506M189.88 18.3506C190.72 19.1606 191.07 20.3706 191.04 21.5006C191.03 21.6706 190.98 22.0206 190.96 22.2006C190.87 22.2306 190.74 22.2806 190.63 22.2706C190.05 22.3406 189.37 22.3206 188.71 22.2906C186.03 22.1206 183.29 21.6906 180.56 21.2606C177.82 20.8206 175.07 20.3306 172.31 19.8306C167.29 18.9006 162.22 17.9506 157.1 16.9906C158.41 16.8606 159.73 16.7306 161.05 16.6106C163.78 17.3106 166.5 17.9406 169.21 18.4606C171.26 18.8406 173.32 19.1306 175.39 19.2506C177.44 19.3206 179.57 19.3606 181.57 18.4806C182.54 18.0306 183.47 17.1806 183.77 16.0806C183.77 16.0506 183.79 16.0206 183.8 15.9906C184.78 16.1406 185.75 16.3306 186.68 16.6106C187.9 16.9906 189.07 17.5406 189.9 18.3706M163.94 16.3306C164.98 16.2406 166.03 16.1406 167.08 16.0606C172.28 15.6706 177.59 15.2906 182.83 15.8406C182.86 15.8406 182.88 15.8406 182.9 15.8506C182.65 16.6706 181.99 17.2706 181.18 17.6606C179.48 18.4206 177.41 18.4206 175.43 18.3306C173.42 18.2106 171.4 17.9106 169.37 17.5306C167.56 17.1806 165.75 16.7706 163.93 16.3406M180.95 11.2706C181.71 11.7806 182.4 12.4306 182.77 13.2206C182.93 13.6106 183.07 14.0406 183.07 14.4506C183.04 14.4506 183.02 14.4506 182.99 14.4406C177.53 13.9006 172.2 14.3106 166.97 14.7106C164.66 14.9006 162.37 15.1306 160.1 15.3506C155 13.9906 149.85 12.3906 144.59 10.8106C140.35 9.52063 136.05 8.19063 131.63 6.99063C131.1 6.85063 130.57 6.70063 130.03 6.57063C131.98 6.73063 133.95 6.82063 135.95 6.90063C142.51 7.12063 149.36 7.10063 156.5 7.31063C158.86 7.38063 161.25 7.48063 163.67 7.64063C163.83 7.66063 163.99 7.69063 164.14 7.71063C165.2 7.81063 166.25 7.92063 167.29 7.92063C167.32 7.92063 167.36 7.92063 167.39 7.92063C171.06 8.29063 174.85 8.75063 178.43 10.0306C179.32 10.3506 180.17 10.7606 180.95 11.2706ZM120.29 3.38063C120.09 3.13063 120 2.83063 120.01 2.52063C119.99 2.21063 120.14 1.87063 120.3 1.67063C120.68 1.18063 121.37 0.930629 122.05 0.780629C122.74 0.630629 123.45 0.580629 124.16 0.560629C125.59 0.540629 127.01 0.650629 128.4 0.810629C131.19 1.14063 133.88 1.63063 136.49 2.14063C144.04 3.64063 150.88 5.35063 157.16 6.57063C156.95 6.57063 156.74 6.55063 156.53 6.55063C149.38 6.37063 142.53 6.41063 135.99 6.21063C132.72 6.10063 129.53 5.95063 126.45 5.54063C124.92 5.33063 123.4 5.05063 122.02 4.52063C121.34 4.25063 120.68 3.90063 120.29 3.38063ZM116.69 8.21063C116.69 7.93063 116.75 7.65063 116.78 7.37063C116.8 7.09063 116.82 6.91063 116.95 6.63063C117.05 6.43063 117.49 6.12063 117.98 6.02063C118.98 5.77063 120.15 5.83063 121.28 5.93063C122.42 6.04063 123.55 6.23063 124.68 6.45063C126.93 6.89063 129.16 7.45063 131.36 8.04063C135.76 9.22063 140.06 10.5306 144.31 11.8006C148.74 13.1206 153.09 14.4406 157.41 15.6306C155.76 15.8006 154.13 15.9606 152.5 16.1306C142.16 14.2306 131.61 12.3506 120.73 11.0506C119.47 10.9106 118.2 10.7706 116.92 10.6506C116.72 9.87063 116.65 9.04063 116.7 8.21063M79.0898 29.0406C80.9098 29.2806 82.7399 29.6006 84.5599 29.9406C87.3099 30.4706 90.0398 31.0506 92.7698 31.6506C90.7498 31.6006 88.7398 31.5106 86.7398 31.3806C86.5998 31.3706 86.4698 31.3606 86.3298 31.3506C84.4098 30.9106 82.4598 30.5406 80.4398 30.3106C80.0298 30.2706 79.6198 30.2306 79.1998 30.2106C79.1698 30.2006 79.1298 30.1906 79.0998 30.1806C78.7698 30.0606 78.4798 29.8906 78.3498 29.7906C78.3698 29.7206 78.3899 29.6206 78.4299 29.4406C78.4599 29.2806 78.4999 29.1306 78.5299 28.9906C78.7099 29.0106 78.8998 29.0306 79.0798 29.0506M106.23 34.7206C111.42 35.9306 116.58 37.1406 121.73 38.3006C122.58 38.7206 123.44 39.1306 124.29 39.5506C127.64 41.2006 130.97 42.8706 134.29 44.5506C131.99 44.6706 129.69 44.7806 127.4 44.8806C123.31 43.3906 119.2 41.8906 115.08 40.4106C109.44 38.4206 103.78 36.4006 98.0198 34.5906C98.6098 34.5906 99.1899 34.6106 99.7799 34.6106C101.79 34.6206 103.81 34.6306 105.82 34.6206C105.96 34.6506 106.09 34.6806 106.23 34.7106M170.02 46.7806C173.55 47.0806 177.09 47.2606 180.62 47.2306C184.15 47.1906 187.7 46.9606 191.2 46.2206C191.71 46.1106 192.22 45.9906 192.72 45.8506C195.49 46.1806 198.22 46.6706 200.84 47.4606C202.7 48.0206 204.48 48.7806 205.96 49.8406C206.73 50.3806 207.37 51.0206 207.86 51.7306C207.58 51.6906 207.3 51.6506 207.03 51.6106C202 50.9606 197 50.7106 192.01 50.6206C182.04 50.4506 172.15 50.8406 162.31 51.2506C159.72 51.3606 157.14 51.4806 154.55 51.5906C151.08 49.9206 147.6 48.1906 144.13 46.4506C149.35 46.1506 154.59 45.8506 159.84 45.6006C163.23 46.0706 166.63 46.4706 170.02 46.7606M176.8 45.1106C178.45 45.1106 180.09 45.1206 181.74 45.1606C181.36 45.1606 180.99 45.1706 180.61 45.1806C179.34 45.1806 178.07 45.1606 176.8 45.1206M219.13 58.3506C219.03 59.2706 218.86 60.1306 218.56 60.9206C217.9 62.7406 216.53 64.1406 214.73 65.0506C212.93 65.9606 210.8 66.4206 208.63 66.6306C207.58 66.7306 206.52 66.7706 205.46 66.7806C205.97 66.4906 206.46 66.1606 206.93 65.7806C208.76 64.3306 210.03 62.2706 210.72 60.1606C210.93 59.6306 211.06 59.1006 211.17 58.5606C211.27 58.1106 211.46 57.3706 211.47 56.8906C211.5 56.4806 211.57 56.1106 211.57 55.6606C212.29 55.8206 213 55.9806 213.71 56.1706C215.63 56.7106 217.54 57.3906 219.14 58.3606M147.92 51.9006C145.51 51.1606 143.09 50.4306 140.67 49.7006C138.23 48.8206 135.79 47.9406 133.35 47.0506C135.13 46.9606 136.92 46.8706 138.71 46.7706C142.12 48.4806 145.52 50.1806 148.94 51.8606C148.6 51.8806 148.26 51.8906 147.92 51.9106M208.97 55.2106C209.04 55.5706 208.94 56.1406 208.9 56.6306C208.87 57.1806 208.75 57.4206 208.65 57.9706C208.56 58.4406 208.44 58.8906 208.27 59.3206C207.69 61.0806 206.7 62.6506 205.31 63.7506C203.92 64.8706 202.16 65.5206 200.29 65.8306C199.11 66.0306 197.89 66.0906 196.65 66.0706C196.17 66.0006 195.69 65.9306 195.21 65.8606C195.16 65.8506 195.11 65.8406 195.06 65.8306C189.22 64.3806 183.39 62.6806 177.57 60.9706C175.24 60.2806 172.91 59.5706 170.58 58.8606C167.29 57.4806 164.02 56.0206 160.76 54.5106C161.32 54.4806 161.89 54.4606 162.45 54.4306C172.27 54.0206 182.12 53.6406 191.95 53.8106C196.86 53.9006 201.78 54.1406 206.61 54.7706C207.4 54.8806 208.2 55.0006 208.98 55.1406C208.98 55.1606 208.98 55.1806 208.98 55.1906M139.72 44.2506C137.38 43.0706 135.04 41.8906 132.69 40.7106C137.88 41.8106 143.05 42.8406 148.22 43.7606C145.38 43.9206 142.54 44.0906 139.71 44.2506M78.2799 29.7106C78.2799 29.7106 78.2999 29.7106 78.2999 29.7306C78.2999 29.7306 78.2799 29.7206 78.2799 29.7106ZM76.7999 33.3406C77.8499 33.2706 78.9698 33.3306 80.0998 33.4506C80.5098 33.5006 80.9298 33.5606 81.3398 33.6206C81.6298 33.6706 81.9098 33.7106 82.1998 33.7506C83.7798 34.0106 85.3698 34.3606 86.9498 34.7406C92.8298 36.2106 98.6399 38.0606 104.41 40.0306C99.2999 38.9206 94.1498 37.9606 88.9398 37.2406C84.1898 36.6006 79.3798 36.1706 74.5198 36.2006C74.3398 35.9006 74.1699 35.6006 74.0299 35.2906L74.0898 34.7406C74.1998 34.1706 74.1999 34.3906 74.4199 34.0706C74.7799 33.7006 75.7699 33.4206 76.7999 33.3506M112.59 45.2806C106.68 45.3106 100.81 45.1506 95.0399 44.5306C91.2799 44.1206 87.5498 43.5006 84.0198 42.3906C82.2598 41.8406 80.5498 41.1706 79.0098 40.2706C78.5998 40.0406 78.1999 39.7806 77.8099 39.5106C81.3799 39.6406 84.9498 39.9906 88.5098 40.4706C96.6098 41.5806 104.64 43.3106 112.59 45.2706M132.94 52.4606C123.2 52.7306 113.49 52.8306 103.9 52.1406C99.1098 51.8006 94.3598 51.2306 89.7598 50.1906C85.2198 49.1306 80.6298 47.6106 77.3798 44.7206C75.7798 43.3006 74.6299 41.5206 74.1699 39.5106C75.2599 40.6406 76.5298 41.5506 77.8498 42.3106C79.5898 43.3306 81.4498 44.0506 83.3198 44.6406C87.0698 45.8206 90.9299 46.4706 94.7799 46.8906C102.5 47.7306 110.28 47.7706 118.08 47.6206C119.14 47.6006 120.21 47.5606 121.28 47.5306C126.87 49.0406 132.43 50.6306 137.97 52.2806C136.3 52.3406 134.62 52.4006 132.94 52.4506M222.98 63.8306C223.07 64.2006 222.96 64.9106 222.91 65.5206C222.88 65.9006 222.75 66.3706 222.56 66.7006C222.2 67.4006 221.51 67.9506 220.57 68.3406C218.68 69.1106 216.23 69.2006 213.86 69.1206C213.47 69.1006 213.07 69.0706 212.68 69.0506C213.85 68.7506 215 68.3506 216.12 67.7806C218.44 66.6506 220.53 64.5406 221.42 62.0006C221.59 61.5606 221.71 61.1206 221.82 60.6706C221.93 60.8206 222.03 60.9706 222.13 61.1206C222.38 61.5406 222.59 61.9806 222.73 62.4406C222.86 62.9206 222.98 63.3906 222.97 63.8306M216.58 49.4406C217.83 50.9806 218.68 52.7606 219.03 54.6706C217.56 53.9906 216.05 53.5006 214.56 53.0706C213.37 52.7506 212.19 52.4906 211 52.2606C210.32 50.4106 209 48.8106 207.47 47.7706C205.63 46.4606 203.62 45.6306 201.6 45.0206C200.23 44.6106 198.85 44.2806 197.46 44.0106C198.71 43.3206 199.88 42.4506 200.85 41.3406C201.01 41.1606 201.16 40.9706 201.31 40.7806C202.87 41.2606 204.4 41.7906 205.91 42.3906C209.98 44.0306 213.96 46.2006 216.59 49.4306M126.29 34.5406C135.15 34.5206 144.05 34.5606 152.98 34.8406C161.9 35.1206 170.86 35.6206 179.78 36.6406C184.23 37.1606 188.68 37.8106 193.07 38.7206C195.13 39.1506 197.19 39.6306 199.21 40.1906C197.8 41.7006 195.88 42.7206 193.79 43.4306C192.32 43.2406 190.84 43.1006 189.37 42.9906C181.22 42.4006 173.17 42.6006 165.18 42.9006C162.78 43.0006 160.38 43.1106 157.98 43.2406C155.06 42.8006 152.15 42.3206 149.22 41.8006C141.08 40.3306 132.92 38.6006 124.7 36.7406C123.24 36.0206 121.77 35.3006 120.3 34.5906C122.29 34.5806 124.28 34.5706 126.28 34.5606M80.4299 26.2106C81.0899 25.6906 81.9798 25.4406 82.8798 25.2306C84.7498 24.9006 86.8198 25.0506 88.8598 25.3906C92.9598 26.0906 97.0198 27.4906 101 28.9906C103.26 29.8706 105.5 30.8006 107.72 31.7606C106.3 31.7606 104.88 31.7606 103.45 31.7606C97.3598 30.3306 91.2398 28.8906 84.9898 27.6806C83.2598 27.3506 81.5198 27.0506 79.7498 26.8006C79.9598 26.5806 80.1599 26.3606 80.4299 26.2106ZM73.2698 29.7506C73.2998 29.4906 73.3498 29.1206 73.3498 28.9706C73.4498 28.9306 73.6298 28.8506 73.8398 28.8306C74.3898 28.7306 75.0398 28.7206 75.7098 28.7406C75.7098 28.7406 75.7098 28.7406 75.7098 28.7506C75.6198 28.8306 75.4798 29.5706 75.5698 30.3006C75.2098 30.3606 74.8398 30.4406 74.4698 30.5506C74.0598 30.6706 73.6198 30.8506 73.1998 31.0806C73.1998 31.0706 73.1998 31.0506 73.1998 31.0406C73.1698 30.6106 73.2199 30.1806 73.2799 29.7506M134.26 182.491C126.54 182.551 118.52 182.521 110.25 182.111C106.11 181.901 101.91 181.591 97.6699 181.081C93.4299 180.561 89.1298 179.871 84.8898 178.721C82.7798 178.141 80.6799 177.441 78.6699 176.521C76.6699 175.601 74.7399 174.451 73.1799 172.921C71.6199 171.391 70.5398 169.401 70.3398 167.221C70.2798 166.681 70.2898 166.131 70.3198 165.581C70.3498 165.301 70.3599 165.031 70.4099 164.751C70.4399 164.511 70.4898 164.201 70.5698 164.041C70.8498 163.331 71.9699 162.991 73.0499 162.931C75.2699 162.801 77.6199 163.241 79.9199 163.721C82.2299 164.221 84.5398 164.841 86.8598 165.501C91.4998 166.841 96.1498 168.371 100.87 169.941C110.3 173.101 119.95 176.471 129.95 179.641C132.98 180.591 136.05 181.541 139.15 182.451C137.53 182.471 135.91 182.491 134.27 182.501M147.43 183.221C150.53 183.181 153.58 183.141 156.58 183.161C158.36 183.171 160.13 183.211 161.86 183.301C163.59 183.411 165.33 183.511 166.9 183.951C167.28 184.061 167.66 184.221 167.86 184.421C167.95 184.591 167.97 184.451 167.96 184.701C167.92 184.781 167.89 185.031 167.81 185.171C167.52 185.831 166.91 186.341 166.21 186.701C165.94 186.841 165.66 186.951 165.38 187.061C164.06 186.861 162.74 186.641 161.43 186.401C156.68 185.511 152.02 184.421 147.43 183.221ZM133.35 98.2106C131.08 97.9206 128.81 97.6406 126.54 97.3406C115.68 95.9006 104.85 94.3306 94.1398 92.3706C88.7798 91.3806 83.4498 90.2906 78.1998 89.0006C72.9598 87.6806 67.7299 86.2006 62.9299 84.0306C61.7399 83.4806 60.5899 82.8806 59.5399 82.1906C58.4899 81.5106 57.5299 80.7206 56.9099 79.8706C56.5999 79.4506 56.3899 79.0206 56.2999 78.6106C56.2499 78.0406 56.1598 78.0806 56.3798 77.2906C56.5498 76.7406 57.2599 76.0206 58.3099 75.6506C60.4399 74.8606 63.1498 74.8006 65.7498 74.8806C68.3798 74.9806 71.0398 75.2806 73.6998 75.6606C82.9298 77.0306 92.0898 79.1806 101.21 81.4206C106.32 83.4406 111.39 85.6006 116.43 87.7906C124.74 91.4206 132.99 95.2006 141.24 98.9706C138.62 98.7206 135.99 98.4706 133.37 98.2106M57.9498 84.8206C57.9498 84.8206 57.9299 84.8106 57.9099 84.8006C57.9199 84.8006 57.9298 84.8106 57.9498 84.8206ZM160.05 104.381C170.61 105.561 181.18 106.711 191.76 107.921C197.24 108.551 202.71 109.201 208.17 109.931C209.91 110.171 211.65 110.411 213.4 110.661C214.62 111.001 215.83 111.381 216.99 111.821C218.25 112.301 219.5 112.861 220.47 113.581C220.94 113.931 221.35 114.341 221.51 114.701C221.69 115.021 221.65 115.201 221.48 116.021C221.21 117.281 220.71 118.471 220.02 119.531C219.23 120.771 218.14 121.791 216.88 122.621C215.16 122.641 213.43 122.531 211.69 122.311C210.83 119.741 209.26 117.411 207.22 115.651C204.98 113.681 202.35 112.281 199.64 111.221C194.18 109.161 188.45 108.271 182.76 107.731C177.34 107.271 171.91 107.141 166.49 107.191C164.34 106.261 162.19 105.311 160.05 104.361M224.08 138.961C224.2 139.871 224.19 140.811 224.05 141.741C224.03 141.901 224.01 142.051 223.97 142.171C223.38 142.121 222.77 142.051 222.15 141.951C221.17 141.791 220.19 141.591 219.21 141.381C219.53 140.891 219.83 140.381 220.09 139.861C220.57 138.901 220.96 137.891 221.26 136.861C221.63 137.071 221.99 137.291 222.33 137.521C222.97 137.951 223.57 138.441 224.08 138.971M212.75 142.561C212.69 142.501 212.64 142.441 212.58 142.391C212.23 142.091 211.88 141.781 211.52 141.501C212.37 141.721 213.22 141.951 214.07 142.171C214.97 142.391 215.87 142.611 216.77 142.831C216.65 142.971 216.52 143.101 216.39 143.231C215.17 143.051 213.96 142.831 212.75 142.571M207.38 158.161C206.72 158.621 206 159.021 205.25 159.351C204.96 159.291 204.68 159.231 204.4 159.171C204.55 159.111 204.7 159.051 204.85 158.981C205.4 158.671 205.98 158.431 206.5 158.051C206.99 157.641 207.57 157.331 207.98 156.821C208.11 156.691 208.23 156.551 208.35 156.421C208.64 156.461 208.93 156.501 209.22 156.551C208.67 157.151 208.06 157.691 207.39 158.151M161.73 152.441C156.69 150.521 151.7 148.461 146.75 146.321C148.8 146.841 150.84 147.361 152.9 147.891C156.81 149.461 160.74 150.991 164.71 152.441C163.72 152.441 162.72 152.441 161.73 152.441ZM49.2799 100.531C49.2099 99.8906 49.3699 99.2206 49.4199 98.5606C49.4799 97.9106 49.6598 97.4406 49.9598 97.0606C50.5798 96.2406 51.7998 95.7706 53.0698 95.5206C54.3598 95.2706 55.7298 95.2106 57.0998 95.2406C57.7098 95.2606 58.3199 95.2906 58.9299 95.3306C63.1199 96.3306 67.2799 97.4806 71.4199 98.7106C70.6699 98.6006 69.9299 98.5006 69.1799 98.4106C66.4799 98.0906 63.7498 97.8806 61.0098 97.9106C58.2698 97.9606 55.4799 98.2106 52.8099 99.2406C51.6999 99.6806 50.6198 100.301 49.7098 101.161C49.5698 101.131 49.4399 101.101 49.3099 101.081C49.3099 100.901 49.2999 100.711 49.2999 100.531M202.94 120.601C201.72 120.261 200.5 119.931 199.28 119.611C197.57 119.121 195.88 118.591 194.19 118.041C188.96 116.321 183.78 114.361 178.64 112.301C175.92 111.211 173.22 110.081 170.52 108.941C174.56 108.971 178.59 109.121 182.61 109.451C188.21 109.971 193.83 110.851 199.04 112.801C201.62 113.801 204.09 115.121 206.13 116.901C207.77 118.311 209.04 120.081 209.84 122.061C207.53 121.681 205.23 121.181 202.94 120.601ZM184.32 117.591C187.29 118.711 190.27 119.781 193.29 120.781C198.6 122.531 204.03 124.041 209.63 124.961C209.98 125.011 210.34 125.061 210.69 125.101C210.69 125.101 210.69 125.111 210.69 125.121C210.14 125.251 209.58 125.361 209.01 125.461C206.27 124.581 203.47 123.901 200.67 123.291C195.25 122.141 189.77 121.361 184.28 120.721C174.9 119.671 165.48 119.071 156.05 118.641C150.59 117.251 145.16 115.761 139.73 114.241C136.24 113.261 132.75 112.251 129.26 111.241C130.04 111.171 130.82 111.101 131.6 111.031C137.35 111.581 143.1 112.151 148.84 112.771C160.07 113.991 171.28 115.371 182.39 117.241C183.03 117.351 183.68 117.471 184.32 117.581M218.12 141.131C216.93 140.861 215.74 140.561 214.55 140.261C212.91 139.841 211.27 139.391 209.64 138.951C209.31 138.211 208.93 137.501 208.5 136.821C208.94 136.601 209.37 136.351 209.78 136.051C210.75 135.351 211.49 134.341 211.91 133.201C214.34 133.901 216.73 134.691 219 135.711C219.44 135.911 219.87 136.121 220.3 136.341C220.01 137.391 219.63 138.411 219.14 139.381C218.84 139.991 218.5 140.571 218.11 141.131M124.79 133.151C123.46 132.681 122.14 132.191 120.82 131.711C114.01 128.881 107.2 126.101 100.35 123.501C101.95 123.431 103.54 123.351 105.13 123.281C113.85 122.881 122.53 122.521 131.17 122.351C131.82 122.411 132.47 122.471 133.13 122.531C136.41 122.821 139.68 123.121 142.96 123.421C147.09 124.841 151.22 126.251 155.37 127.611C162.69 129.981 170.05 132.301 177.52 134.241C170.81 133.831 164.08 133.651 157.35 133.511C147.37 133.321 137.37 133.291 127.35 133.181C126.49 133.171 125.64 133.161 124.78 133.151M117.78 112.261C119.84 112.931 121.91 113.611 123.97 114.291C121.41 113.641 118.85 113.011 116.28 112.391C116.78 112.351 117.28 112.301 117.79 112.251M210.93 127.601C210.9 128.281 210.95 128.921 210.87 129.631L210.71 130.931C206.8 129.891 202.86 129.071 198.89 128.351L198.87 128.341C201.3 128.401 203.73 128.361 206.18 128.141C207.76 128.001 209.35 127.771 210.92 127.431C210.92 127.491 210.92 127.541 210.92 127.601M171.16 124.471C169.13 124.251 167.1 124.021 165.07 123.811C161.75 123.471 158.44 123.141 155.12 122.821C154.7 122.701 154.28 122.571 153.86 122.451C155.95 122.531 158.04 122.621 160.13 122.751C161.81 122.861 163.49 122.981 165.17 123.131C167.16 123.591 169.16 124.041 171.17 124.471M186.13 134.681C183.51 133.791 180.9 132.891 178.29 131.991C177.36 131.661 176.44 131.341 175.52 131.011C180.33 132.441 185.15 133.881 189.98 135.311C189.39 135.241 188.8 135.171 188.2 135.111C187.51 134.971 186.82 134.821 186.13 134.681ZM143.36 119.481C143.01 119.381 142.66 119.281 142.3 119.191C145.07 119.281 147.83 119.371 150.6 119.481C150.77 119.531 150.93 119.571 151.1 119.621C148.52 119.551 145.94 119.501 143.36 119.481ZM109.11 113.011C113.49 113.991 117.86 115.031 122.23 116.121C122.53 116.231 122.83 116.341 123.14 116.441C124.33 116.871 125.53 117.291 126.72 117.711C123.79 117.641 120.87 117.571 117.95 117.511C107.52 117.251 97.0899 117.001 86.6599 116.411C84.1399 116.111 81.6098 115.801 79.0898 115.461C78.5898 115.261 78.0998 115.061 77.5998 114.851C77.3498 114.751 77.1098 114.651 76.8598 114.551C78.0998 114.571 79.3398 114.581 80.5798 114.571C90.1298 114.491 99.6298 113.801 109.11 113.011ZM75.2498 114.911C74.7398 114.841 74.2298 114.761 73.7198 114.691C73.6698 114.681 73.6298 114.661 73.5798 114.651C73.3098 114.571 73.0499 114.501 72.7799 114.431C73.2499 114.451 73.7298 114.481 74.1998 114.491C74.5498 114.631 74.8998 114.781 75.2498 114.921M93.5098 121.001C91.9398 120.441 90.3599 119.901 88.7899 119.381C87.4499 118.841 86.1098 118.311 84.7698 117.761C90.2498 118.441 95.7298 119.011 101.21 119.571C103.75 119.831 106.3 120.071 108.84 120.311C107.56 120.371 106.29 120.421 105.01 120.481C101.19 120.651 97.3498 120.831 93.5198 121.001M102.98 118.131C107.97 118.291 112.95 118.421 117.92 118.551C121.91 118.651 125.89 118.741 129.87 118.851C130.55 119.091 131.22 119.331 131.9 119.571C128.46 119.631 125.01 119.721 121.55 119.841C115.36 119.301 109.17 118.741 102.98 118.141M152.74 124.341C153.16 124.461 153.59 124.581 154.01 124.701C160.42 126.961 166.84 129.221 173.27 131.491C167.42 129.861 161.61 128.041 155.83 126.171C153.65 125.461 151.47 124.731 149.29 124.001C150.44 124.111 151.59 124.221 152.74 124.331M205.5 137.791C205.5 137.791 205.53 137.791 205.54 137.791C205.65 137.771 205.76 137.741 205.87 137.721C205.92 137.801 205.97 137.871 206.02 137.951C205.85 137.901 205.68 137.851 205.5 137.801M201.32 136.581C200.7 136.401 200.07 136.211 199.45 136.031C187.68 132.541 175.96 128.971 164.24 125.501C164.46 125.531 164.67 125.551 164.89 125.571C175.08 126.671 185.24 127.891 195.28 129.591C196.54 130.161 197.76 130.781 198.94 131.471C201.15 132.771 203.18 134.381 204.78 136.281C203.65 136.471 202.49 136.561 201.32 136.581ZM205.9 133.491C205.05 132.611 204.13 131.811 203.17 131.071C205.58 131.581 207.97 132.141 210.33 132.771C210.02 133.541 209.51 134.241 208.81 134.751C208.43 135.031 208.01 135.251 207.57 135.451C207.05 134.761 206.49 134.101 205.89 133.481M205.97 125.861C201.67 126.251 197.29 126.091 192.93 125.701C191.13 125.041 189.31 124.471 187.47 123.971C179.18 121.751 170.67 120.751 162.14 120.151C161.92 120.101 161.7 120.051 161.49 119.991C169.07 120.401 176.64 120.961 184.17 121.811C189.64 122.441 195.09 123.231 200.45 124.371C202.42 124.801 204.39 125.271 206.33 125.811C206.22 125.821 206.1 125.841 205.98 125.851M138.74 118.031C132.83 115.971 126.91 113.951 120.98 111.981C121.8 111.911 122.62 111.831 123.43 111.761C128.66 113.311 133.9 114.841 139.15 116.331C141.46 116.981 143.77 117.621 146.09 118.261C143.64 118.181 141.19 118.101 138.75 118.031M78.5499 107.751C86.6399 108.571 94.7098 109.991 102.75 111.651C95.3498 112.201 87.9598 112.621 80.5698 112.671C77.5898 112.681 74.6098 112.631 71.6498 112.441C68.4598 111.151 65.2599 109.861 62.0499 108.611C61.3299 108.331 60.6098 108.061 59.8898 107.791C61.0498 107.601 62.2299 107.461 63.4099 107.361C68.3999 106.981 73.4899 107.251 78.5499 107.751ZM93.9299 107.651C95.9299 107.831 97.9298 108.011 99.9398 108.191C101.3 108.671 102.66 109.151 104.02 109.631C100.67 108.921 97.2999 108.251 93.9299 107.651ZM61.7098 109.501C63.9798 110.381 66.2498 111.281 68.5198 112.191C66.9198 112.031 65.3298 111.841 63.7498 111.571C60.9998 111.111 58.2799 110.441 55.8099 109.321C55.5999 109.231 55.3998 109.121 55.1998 109.021C55.5198 108.901 55.8399 108.781 56.1599 108.681C56.7999 108.471 57.4498 108.301 58.1198 108.141C59.3198 108.581 60.5198 109.041 61.7098 109.491M52.7999 107.521C52.2899 107.121 51.8199 106.691 51.4099 106.231C51.5399 106.261 51.6898 106.271 51.8998 106.231C52.5498 106.341 53.2098 106.521 53.8698 106.721C54.0198 106.761 54.1599 106.811 54.2999 106.861C53.7899 107.061 53.2899 107.281 52.7999 107.531M118.66 110.341C117.97 110.401 117.28 110.461 116.58 110.521C116.55 110.511 116.52 110.501 116.49 110.491C115.28 110.101 114.07 109.711 112.86 109.321C113.99 109.421 115.12 109.521 116.25 109.621C117.05 109.861 117.85 110.101 118.65 110.331M113.27 110.811C112.81 110.851 112.35 110.891 111.89 110.921C109.77 110.171 107.66 109.421 105.54 108.681C105.96 108.721 106.39 108.751 106.81 108.791C108.97 109.451 111.12 110.121 113.27 110.811ZM101.13 107.131C100.89 107.051 100.65 106.961 100.4 106.881C100.71 106.971 101.02 107.061 101.33 107.151C101.26 107.151 101.2 107.141 101.13 107.131ZM91.0198 105.091C92.4898 105.601 93.9698 106.111 95.4398 106.621C90.7498 106.191 86.0498 105.761 81.3598 105.311C75.7298 104.751 70.0998 104.161 64.4798 103.461C60.1498 102.911 55.8199 102.321 51.5499 101.531C52.0999 101.161 52.6998 100.851 53.3298 100.601C55.7098 99.6706 58.3798 99.4006 61.0198 99.3506C63.6698 99.3106 66.3498 99.5106 69.0098 99.8206C73.4898 100.351 77.9398 101.201 82.3698 102.191C85.2598 103.141 88.1398 104.111 91.0198 105.091ZM50.2799 102.631C50.2799 102.631 50.3398 102.581 50.3598 102.551C54.9998 103.431 59.6698 104.061 64.3398 104.651C65.0398 104.731 65.7399 104.811 66.4299 104.901C65.3599 104.931 64.2998 104.971 63.2298 105.051C60.7498 105.241 58.2599 105.601 55.8099 106.351C55.2499 106.161 54.6998 105.981 54.1398 105.811C53.4598 105.611 52.7799 105.421 52.0499 105.301C51.8699 105.031 51.2498 105.121 50.7298 105.391C50.4798 105.041 50.2499 104.671 50.0599 104.271C49.9599 103.971 49.8298 103.681 49.7198 103.381C49.8798 103.121 50.0699 102.871 50.2799 102.641M62.9498 116.131C67.0198 116.301 71.1099 117.111 75.1599 118.061C75.3399 118.101 75.5298 118.151 75.7098 118.201C78.6298 119.141 81.5198 120.231 84.3998 121.361C81.9798 121.441 79.5598 121.511 77.1398 121.561C72.4998 121.621 67.8199 121.641 63.2899 121.151C62.1599 121.021 61.0498 120.841 60.0098 120.571C58.9998 120.321 57.9498 119.881 57.5998 119.461C57.4698 119.301 57.4698 119.171 57.4698 119.091C57.6198 118.541 57.7698 117.851 57.9698 117.661C58.2998 117.041 58.9199 116.401 59.7899 116.111C60.8299 116.051 61.8898 116.051 62.9498 116.111M55.4898 121.281C56.1098 121.971 56.7899 122.341 57.4199 122.631C58.0599 122.921 58.6799 123.101 59.2999 123.271C60.5399 123.581 61.7498 123.771 62.9498 123.921C67.7598 124.451 72.4699 124.421 77.1699 124.361C81.6899 124.281 86.1899 124.121 90.6699 123.931C97.3699 126.771 104.03 129.821 110.7 132.901C106.21 132.791 101.72 132.651 97.2298 132.441C87.1998 131.921 77.0999 131.211 67.2999 129.141C62.4499 128.051 57.5298 126.671 53.5698 123.981C52.0298 122.911 50.6998 121.581 49.9598 120.011C50.4498 119.411 51.0199 118.871 51.6599 118.431C52.7299 117.681 53.9699 117.141 55.2999 116.771C54.9899 117.421 54.9399 117.851 54.7899 118.361C54.4899 119.431 54.8598 120.561 55.4898 121.281ZM123.66 135.711C128.85 137.891 134.06 140.101 139.3 142.301C139.05 142.241 138.79 142.181 138.54 142.121C137.65 141.911 136.77 141.721 135.88 141.511C131.64 139.601 127.43 137.661 123.22 135.701C123.36 135.701 123.51 135.701 123.65 135.701M138.34 145.601C143.61 147.941 148.91 150.241 154.29 152.421C143.81 152.381 133.25 152.301 122.62 151.961C114.67 151.701 106.68 151.301 98.6699 150.601C90.6699 149.891 82.6398 148.901 74.7398 147.191C72.4698 146.691 70.2098 146.121 67.9898 145.461C68.2198 145.041 68.4598 144.631 68.7398 144.241C70.5598 141.701 73.4698 140.051 76.5698 139.021C79.6898 137.991 83.0398 137.511 86.3998 137.281C89.7698 137.061 93.1998 137.101 96.6198 137.291C103.48 137.681 110.37 138.651 117.28 139.861C122.29 140.751 127.31 141.771 132.34 142.891C134.33 143.801 136.34 144.701 138.34 145.601ZM187.98 155.061C189.63 155.101 191.28 155.141 192.93 155.211C196.75 155.361 200.55 155.561 204.31 155.921C204.47 155.941 204.63 155.961 204.79 155.981C204.46 156.191 204.12 156.391 203.75 156.551C202.08 157.321 200.13 157.621 198.15 157.701C194.74 156.861 191.36 155.971 187.98 155.071M206.94 153.851C206.14 153.751 205.34 153.661 204.53 153.571C200.7 153.191 196.86 152.991 193.01 152.841C188.23 152.661 183.43 152.581 178.63 152.531C171.41 150.561 164.24 148.611 157.09 146.741C154.04 145.541 151 144.311 147.97 143.071C143.76 141.341 139.57 139.591 135.4 137.831C136.97 138.351 138.54 138.891 140.12 139.391C150.81 142.821 161.64 145.911 172.69 148.111C178.22 149.201 183.8 150.061 189.44 150.461C195.07 150.831 200.8 150.791 206.38 149.511C207.07 149.351 207.76 149.161 208.44 148.951C208.3 150.241 208.04 151.511 207.61 152.591C207.43 153.041 207.21 153.461 206.95 153.851M206.14 148.501C200.73 149.761 195.08 149.801 189.51 149.441C183.93 149.051 178.38 148.201 172.89 147.121C161.9 144.931 151.1 141.861 140.43 138.451C137.76 137.591 135.09 136.711 132.44 135.811C140.76 135.891 149.05 135.951 157.31 136.111C167.26 136.331 177.18 136.631 186.96 137.621C189.3 137.871 191.63 138.151 193.94 138.511C198.6 140.001 203.3 141.401 208.06 142.641C208.38 143.921 208.56 145.231 208.56 146.561C208.56 146.981 208.56 147.401 208.53 147.831C207.75 148.091 206.95 148.311 206.15 148.501M211.15 144.711C211.6 145.191 211.95 145.721 212.19 146.281C211.88 146.451 211.56 146.601 211.23 146.761C211.23 146.681 211.23 146.601 211.23 146.531C211.23 145.921 211.2 145.321 211.14 144.711M217.93 143.091C218.66 143.251 219.39 143.401 220.13 143.551C219.32 143.551 218.49 143.491 217.67 143.391C217.76 143.291 217.84 143.191 217.93 143.091ZM220.75 132.821C220.78 133.061 220.8 133.301 220.8 133.541C220.8 133.831 220.77 134.121 220.72 134.421C220.41 134.271 220.09 134.121 219.77 133.981C217.33 132.901 214.83 132.081 212.3 131.361L212.49 129.831C212.55 129.231 212.54 128.581 212.55 127.941C213.7 128.411 214.83 128.921 215.93 129.481C217.67 130.401 219.34 131.491 220.74 132.821M148.66 109.711C153.6 109.401 158.54 109.141 163.49 109.011C168.16 111.051 172.84 113.051 177.57 114.961C178.13 115.191 178.7 115.401 179.26 115.631C169.2 114.011 159.09 112.781 148.97 111.671C145.27 111.271 141.57 110.891 137.87 110.521C141.47 110.231 145.07 109.951 148.67 109.711M106.49 106.731C107.91 107.151 109.32 107.571 110.74 107.991C109.75 107.901 108.76 107.811 107.77 107.731C100.3 105.411 92.7898 103.261 85.1898 101.431C84.3098 101.221 83.4299 101.021 82.5499 100.821C78.6099 99.5306 74.6499 98.2806 70.6599 97.1206C71.6799 97.3306 72.6898 97.5506 73.7098 97.7806C84.7298 100.311 95.6098 103.541 106.49 106.741M43.6898 99.7206C42.3698 99.3106 41.0399 98.8406 39.8999 98.1806C39.3499 97.8506 38.8298 97.4306 38.6398 97.0106C38.4198 96.7306 38.6499 96.0306 38.8999 95.5406C39.4499 94.5106 40.6798 93.9306 41.9698 93.6506C44.5998 93.1006 47.4498 93.3406 50.2198 93.6806C50.6498 93.7406 51.0898 93.8106 51.5198 93.8706C50.3898 94.2106 49.2498 94.7706 48.3898 95.8506C47.8098 96.6006 47.5098 97.5106 47.4598 98.2806C47.4098 99.0406 47.2299 99.7806 47.3099 100.561C47.3099 100.591 47.3099 100.631 47.3099 100.661C46.0899 100.381 44.8798 100.081 43.6998 99.7206M48.8398 106.111C49.2298 106.721 49.6699 107.271 50.1599 107.781C50.1999 107.951 50.2499 108.111 50.3099 108.271C49.5199 107.661 48.8798 106.901 48.8398 106.121M49.3398 115.431C49.3898 114.901 49.5698 114.251 49.7398 113.831C49.9298 113.321 50.1898 112.841 50.4998 112.391C50.8898 111.831 51.3698 111.341 51.8998 110.901C52.3998 111.141 52.9099 111.361 53.4199 111.561C54.1499 112.001 54.9198 112.371 55.6898 112.701C56.5898 113.071 57.5198 113.391 58.4398 113.671C58.4198 113.671 58.4098 113.681 58.3898 113.691C57.7698 113.751 57.1499 113.831 56.5299 113.921C54.3499 114.271 52.1298 115.011 50.2098 116.361C49.8798 116.591 49.5598 116.851 49.2598 117.121V117.101C49.1698 116.551 49.3298 115.981 49.3398 115.421M63.1198 143.851C59.3798 142.431 55.7098 140.651 52.7398 138.121C51.2598 136.861 49.9799 135.391 49.0599 133.741C48.1599 132.081 47.6199 130.251 47.5499 128.351C47.4399 126.461 47.7599 124.501 48.4199 122.691C48.4599 122.581 48.5099 122.471 48.5599 122.361C48.7399 122.641 48.9398 122.911 49.1298 123.171C50.0398 124.251 51.0698 125.201 52.1898 125.961C56.6898 129.021 61.7899 130.391 66.7799 131.541C76.8499 133.681 87.0198 134.421 97.1098 134.971C103.59 135.291 110.05 135.481 116.49 135.601C118.88 136.711 121.28 137.821 123.68 138.931C121.67 138.541 119.65 138.161 117.64 137.811C110.68 136.611 103.71 135.641 96.7298 135.261C93.2398 135.081 89.7498 135.041 86.2598 135.281C82.7798 135.531 79.2899 136.021 75.9299 137.141C72.6099 138.251 69.2898 140.081 67.1298 143.101C66.7198 143.671 66.3798 144.271 66.0698 144.891C65.0798 144.571 64.0898 144.231 63.1198 143.861M143.22 157.321C130.72 157.361 118.01 157.831 105.08 157.941C98.6198 157.971 92.0998 157.951 85.5698 157.491C82.3098 157.251 79.0498 156.891 75.8598 156.231C74.2698 155.891 72.6898 155.491 71.2298 154.881C69.7698 154.291 68.3898 153.501 67.5098 152.421C67.2898 152.151 67.1398 151.851 66.9698 151.561C66.8898 151.241 66.6998 150.951 66.7098 150.601C66.6498 150.271 66.6299 149.931 66.6799 149.581C66.6799 149.251 66.7598 148.891 66.8598 148.451C66.9098 148.221 66.9799 148.001 67.0499 147.771C69.4199 148.471 71.8098 149.081 74.2098 149.601C82.2698 151.341 90.3898 152.321 98.4498 153.041C106.52 153.741 114.55 154.131 122.53 154.391C135.29 154.791 147.93 154.821 160.42 154.831C162.03 155.451 163.64 156.051 165.27 156.631C166.92 157.221 168.58 157.791 170.25 158.341C167.45 158.051 164.63 157.851 161.79 157.701C155.66 157.381 149.46 157.301 143.21 157.321M194.1 160.891C189.36 160.591 184.62 159.671 179.97 158.441C176.04 157.411 172.16 156.181 168.32 154.841C168.81 154.841 169.31 154.841 169.8 154.841C170.37 154.841 170.95 154.841 171.53 154.841C171.55 154.841 171.56 154.851 171.58 154.861C175.77 156.271 180.02 157.571 184.37 158.611C186.55 159.121 188.75 159.581 190.99 159.891C193.23 160.241 195.52 160.401 197.84 160.351C198.29 160.341 198.75 160.311 199.2 160.281C199.65 160.391 200.1 160.501 200.55 160.611C198.44 160.921 196.27 160.961 194.09 160.871M215.11 158.041C215.89 158.371 216.64 158.791 217.07 159.261C217.29 159.491 217.41 159.721 217.45 159.941C217.49 159.991 217.46 160.291 217.45 160.401C217.43 160.421 217.23 160.561 216.91 160.631C216.57 160.711 216.17 160.771 215.75 160.781C214.9 160.821 214 160.761 213.1 160.681C211.8 160.541 210.5 160.351 209.19 160.121C210.33 159.291 211.33 158.261 212.16 157.121C213.18 157.371 214.18 157.651 215.11 158.031M210.28 154.341C210.12 154.311 209.96 154.291 209.79 154.261C209.89 154.051 210 153.841 210.08 153.621C210.83 151.701 211.12 149.821 211.21 147.921C211.66 147.731 212.1 147.521 212.53 147.291C212.57 147.551 212.57 147.801 212.63 148.111C212.56 148.821 212.59 149.211 212.42 149.771C212.28 150.331 212.19 150.901 212.02 151.441L211.46 153.041C211.26 153.521 211.02 153.981 210.77 154.431C210.61 154.401 210.45 154.371 210.3 154.341M214.47 144.871C214.31 144.561 214.14 144.261 213.94 143.981C214.39 144.061 214.84 144.151 215.29 144.231C215.02 144.451 214.75 144.671 214.47 144.871ZM225.44 142.151C225.36 142.171 225.27 142.181 225.16 142.191C225.18 142.091 225.19 141.991 225.19 141.891C225.24 141.551 225.27 141.201 225.29 140.841C225.35 141.021 225.39 141.211 225.42 141.391C225.46 141.641 225.44 141.971 225.44 142.151ZM223 135.681C222.57 135.411 222.14 135.161 221.71 134.921C221.77 134.621 221.81 134.311 221.84 133.991C221.95 134.131 222.07 134.261 222.17 134.391C222.49 134.801 222.75 135.231 223 135.671M218.09 128.551C218.8 129.171 219.44 129.861 219.93 130.631C218.84 129.811 217.67 129.101 216.47 128.471C215.33 127.891 214.17 127.361 212.99 126.881C213.59 126.701 214.18 126.501 214.77 126.281C215.95 126.941 217.09 127.671 218.09 128.541M228.21 113.681C228.64 113.831 229.09 114.041 229.36 114.211C229.32 114.341 229.27 114.541 229.22 114.841C228.62 117.251 227.36 119.401 225.27 120.631C223.96 121.451 222.44 121.971 220.82 122.281C221.23 121.821 221.62 121.341 221.96 120.811C222.82 119.501 223.42 118.041 223.75 116.541C223.92 116.001 224.14 114.701 223.62 113.721C223.31 113.071 222.89 112.591 222.45 112.191C223.1 112.321 223.75 112.461 224.4 112.601C225.71 112.901 227.03 113.241 228.2 113.671M231.4 90.5606C231.38 90.9306 231.2 91.6406 231.05 92.1406C230.71 93.2306 230.16 94.2206 229.45 95.1006C228.03 96.8706 225.87 98.0806 223.54 98.9006C221.2 99.7206 218.66 100.181 216.09 100.431C210.94 100.931 205.64 100.721 200.38 100.251C189.83 99.2706 179.31 97.2706 168.85 95.0206C147.9 90.4706 127.12 84.6806 106.09 79.4006C103.89 78.8606 101.69 78.3206 99.4798 77.7806C95.0698 76.1006 90.6198 74.5306 86.0798 73.1406C86.0098 73.1206 85.9398 73.1006 85.8698 73.0806C86.3498 73.1306 86.8299 73.1806 87.3099 73.2306C97.7499 74.2206 108.23 74.6306 118.71 74.9006C139.68 75.4406 160.73 75.2506 181.8 76.0706C187.06 76.2806 192.32 76.5706 197.57 77.0106C202.81 77.4506 208.05 78.0306 213.18 78.9906C215.75 79.4606 218.29 80.0406 220.74 80.8006C223.19 81.5606 225.59 82.4806 227.61 83.7906C228.09 84.1406 228.62 84.4506 229.02 84.8506C229.48 85.2206 229.86 85.6206 230.18 86.0606C230.58 86.4606 230.73 86.9606 231.02 87.4006C231.15 87.8906 231.4 88.3906 231.39 88.8206C231.5 89.1706 231.45 89.8706 231.39 90.5506" fill="white"/>
<path d="M128.69 196.681C128.69 196.681 129.25 196.851 130.37 196.941C131.48 197.071 133.13 197.101 135.23 197.541C136.27 197.781 137.44 198.141 138.55 198.941C139.09 199.341 139.6 199.871 139.98 200.521C140.35 201.181 140.61 201.921 140.69 202.731C140.88 204.341 140.32 206.141 139.08 207.501C137.85 208.871 135.96 209.781 133.95 209.871C130.35 210.031 126.41 210.081 122.27 209.951C118.13 209.811 113.76 209.551 109.28 209.071C104.8 208.611 100.2 208.121 95.5401 207.691C93.2101 207.481 90.86 207.291 88.5 207.151C87.33 207.091 86.08 206.971 85.09 207.021C84.05 207.061 82.98 207.241 81.98 207.541C79.97 208.121 78.1 209.241 76.76 210.761C75.4 212.271 74.6101 214.191 74.6501 216.101C74.6501 216.571 74.7101 217.051 74.8101 217.511C74.8601 217.741 74.92 217.971 75 218.201L75.0501 218.371L75.08 218.441L75.12 218.541L75.2701 218.951C75.6501 219.921 76.1201 220.931 76.6501 221.841C77.7101 223.691 79.0701 225.341 80.6501 226.591C82.2201 227.851 84.04 228.661 85.88 228.901C87.92 229.171 89.9201 229.191 91.7901 228.871C93.6601 228.561 95.3801 227.881 96.7901 226.851C98.1901 225.831 99.3 224.421 100 222.971C100.29 222.321 100.4 221.591 100.22 221.131C100.05 220.671 99.67 220.381 98.95 220.171C98.15 219.901 97.46 219.701 96.73 219.531C96 219.361 95.28 219.231 94.58 219.131C91.76 218.731 89.2301 218.851 87.1701 219.031C85.1001 219.231 83.48 219.471 82.37 219.661C81.27 219.861 80.6801 219.961 80.6801 219.961L80.63 219.781C80.63 219.781 81.2101 219.641 82.3101 219.381C83.4101 219.131 85.02 218.791 87.1 218.511C89.18 218.241 91.7401 218.021 94.6601 218.311C96.1101 218.461 97.66 218.731 99.23 219.211C100.02 219.401 100.89 219.891 101.21 220.771C101.53 221.641 101.35 222.591 101 223.431C100.25 225.081 99.0901 226.641 97.5401 227.851C95.9901 229.061 94.0801 229.871 92.0501 230.271C90.0101 230.681 87.86 230.701 85.7 230.481C83.51 230.271 81.39 229.321 79.6 227.931C77.8 226.551 76.3 224.751 75.1 222.761C74.51 221.761 73.9901 220.711 73.5501 219.611C73.1101 218.531 72.7901 217.341 72.7901 216.141C72.7201 213.721 73.72 211.341 75.33 209.531C76.93 207.701 79.0901 206.401 81.4201 205.721C82.5801 205.381 83.79 205.181 85 205.141C86.22 205.091 87.4 205.221 88.6 205.291C90.98 205.441 93.35 205.651 95.7 205.881C100.39 206.341 105 206.921 109.45 207.431C113.91 207.951 118.22 208.371 122.33 208.601C126.43 208.831 130.32 208.881 133.91 208.821C135.68 208.781 137.35 208.071 138.46 206.911C139.59 205.761 140.14 204.201 140.03 202.781C139.98 202.071 139.77 201.391 139.46 200.801C139.14 200.221 138.7 199.741 138.21 199.361C137.22 198.601 136.11 198.221 135.11 197.951C133.09 197.451 131.44 197.351 130.33 197.181C129.21 197.041 128.63 196.851 128.63 196.851L128.68 196.671L128.69 196.681Z" fill="white"/>
</svg>
