<svg width="392" height="222" viewBox="0 0 392 222" fill="none" xmlns="http://www.w3.org/2000/svg">
<path d="M180.8 55.28L138.62 148.9H96.21L138.39 55.28H180.8ZM116.05 55.28L73.64 148.9H30.78L72.96 55.28H116.05ZM83.57 32.72L98.23 0.00999451H240.8C247.57 0.00999451 252.79 1.52 256.48 4.52C260.16 7.53 262.01 11.51 262.01 16.48C262.01 17.68 261.82 19.03 261.45 20.54C261.07 22.04 260.43 23.77 259.53 25.73L203.58 148.9H160.49L208.77 42.65C209.22 41.75 209.45 40.77 209.45 39.72C209.45 37.77 208.74 36.11 207.31 34.76C205.88 33.41 203.96 32.73 201.56 32.73H83.58L83.57 32.72ZM375.93 32.72H343.9C339.54 32.72 336.15 33.7 333.75 35.65C331.34 37.6 330.14 40.09 330.14 43.09C330.14 45.05 330.59 46.59 331.49 47.71C332.39 48.84 333.75 49.82 335.55 50.64C337.35 51.47 339.61 52.22 342.32 52.89C345.03 53.57 348.19 54.36 351.8 55.26C359.77 57.37 365.94 61.5 370.3 67.67C374.66 73.84 376.84 81.43 376.84 90.45C376.84 97.37 375.41 104.17 372.55 110.87C369.69 117.56 365.86 123.24 361.04 127.9C355.93 132.71 350.89 136.47 345.93 139.18C340.97 141.89 335.63 144.22 329.91 146.17C327.35 146.92 323.18 147.56 317.39 148.09C311.6 148.62 304.12 148.88 294.94 148.88H229.97L244.86 116.17H294.04C300.06 116.17 305.28 115.83 309.72 115.16C314.16 114.48 317.88 113.09 320.89 110.99C324.35 108.43 326.98 105.58 328.79 102.42C330.59 99.26 331.5 96.1 331.5 92.94C331.5 90.69 331.12 88.92 330.37 87.64C329.62 86.36 328.49 85.27 326.99 84.37C325.48 83.47 323.72 82.72 321.69 82.11C319.66 81.51 317.29 80.76 314.58 79.85C305.56 76.69 299.01 72.67 294.96 67.78C290.9 62.89 288.87 56.01 288.87 47.14C288.87 40.37 289.96 34.13 292.14 28.42C294.32 22.71 297.4 17.74 301.39 13.53C305.38 9.32 310.19 6.00999 315.83 3.60999C321.47 1.19999 327.75 0 334.67 0H391.07L375.96 32.71L375.93 32.72Z" fill="white"/>
<path d="M15.22 199.12H4.05005L15.16 174.84H32.19L33.59 171.56C33.71 171.29 33.76 170.99 33.76 170.68C33.76 170.17 33.59 169.77 33.23 169.45C32.88 169.14 32.37 168.98 31.71 168.98H17.79L21.59 160.5H41.8301C43.5901 160.5 44.9401 160.89 45.9001 161.67C46.8501 162.45 47.3301 163.48 47.3301 164.77C47.3301 165.47 47.12 166.27 46.69 167.17L41.7201 178.11C41.2101 179.24 40.7101 180.14 40.2001 180.8C39.6901 181.46 39.12 181.99 38.48 182.38C37.83 182.77 37.0801 183.02 36.2001 183.14C35.3201 183.26 34.28 183.31 33.07 183.31H22.48L15.23 199.1L15.22 199.12ZM62.55 185.6C62.67 185.37 62.7201 185.11 62.7201 184.84C62.7201 184.37 62.54 183.95 62.16 183.58C61.79 183.21 61.29 183.02 60.67 183.02H57.8601L50.43 199.11H39.26L50.2001 175.13H67.46L69.04 171.44C69.16 171.17 69.21 170.88 69.21 170.56C69.21 170.09 69.04 169.69 68.68 169.36C68.33 169.03 67.8201 168.86 67.1601 168.86H53L56.8 160.49H77.04C78.79 160.49 80.15 160.88 81.1 161.66C82.06 162.44 82.53 163.47 82.53 164.76C82.53 165.46 82.31 166.26 81.88 167.16L75.97 180.27C75.42 181.4 74.78 182.19 74.04 182.64C73.3 183.09 72.25 183.31 70.88 183.31H70.53C71.86 184.17 72.52 185.32 72.52 186.76C72.52 187.07 72.47 187.43 72.38 187.84C72.28 188.25 72.12 188.71 71.88 189.22L67.38 199.11H56.5L62.53 185.6H62.55ZM104.79 171.56C104.95 171.17 105.02 170.88 105.02 170.68C105.02 170.17 104.83 169.77 104.44 169.45C104.05 169.14 103.5 168.98 102.8 168.98C101.05 168.98 99.8 169.8 99.06 171.44L91.57 187.94C91.41 188.25 91.34 188.6 91.34 188.99C91.34 190.08 92.16 190.63 93.8 190.63C95.32 190.63 96.47 189.81 97.25 188.17L104.8 171.56H104.79ZM106.01 193.5C105.46 194.67 104.89 195.63 104.28 196.37C103.68 197.11 102.96 197.69 102.14 198.1C101.32 198.51 100.38 198.78 99.33 198.92C98.28 199.06 97.07 199.13 95.7 199.13H83.18C81.42 199.13 80.07 198.74 79.11 197.96C78.16 197.18 77.68 196.17 77.68 194.92C77.68 194.3 77.91 193.48 78.38 192.46L90.26 166.14C90.81 164.97 91.39 164.01 92.01 163.27C92.63 162.53 93.36 161.95 94.17 161.55C94.99 161.14 95.92 160.87 96.95 160.73C97.98 160.59 99.18 160.52 100.55 160.52H113.07C114.83 160.52 116.19 160.91 117.17 161.69C118.15 162.47 118.63 163.48 118.63 164.73C118.63 165.47 118.42 166.29 117.99 167.19L106 193.51L106.01 193.5ZM142.05 193.5C141.5 194.67 140.93 195.63 140.32 196.37C139.72 197.11 139 197.69 138.19 198.1C137.37 198.51 136.43 198.78 135.38 198.92C134.33 199.06 133.12 199.13 131.75 199.13H111.33L122.39 174.85H133.45L126.37 190.64H129.41C130.43 190.64 131.22 190.47 131.81 190.12C132.4 189.77 132.9 189.13 133.33 188.19L140.88 171.58C141.04 171.27 141.11 170.96 141.11 170.64C141.11 170.17 140.92 169.78 140.55 169.47C140.18 169.16 139.66 169 139 169H125.02L128.88 160.52H149.12C150.88 160.52 152.24 160.91 153.22 161.69C154.2 162.47 154.68 163.48 154.68 164.73C154.68 165.39 154.45 166.21 153.98 167.19L142.05 193.51V193.5ZM178.09 193.5C177.54 194.67 176.96 195.63 176.33 196.37C175.71 197.11 174.99 197.69 174.17 198.1C173.35 198.51 172.42 198.78 171.39 198.92C170.36 199.06 169.16 199.13 167.79 199.13H155.27C153.51 199.13 152.16 198.74 151.2 197.96C150.25 197.18 149.77 196.17 149.77 194.92C149.77 194.18 149.98 193.36 150.41 192.46L164.92 160.52H176.09L163.75 187.78C163.56 188.17 163.46 188.58 163.46 189.01C163.46 190.1 164.26 190.65 165.86 190.65C167.46 190.65 168.59 189.83 169.37 188.19L181.95 160.52H193.06L178.09 193.51V193.5ZM213.24 193.5C212.69 194.71 212.11 195.69 211.48 196.43C210.86 197.17 210.14 197.74 209.35 198.13C208.55 198.52 207.62 198.78 206.57 198.92C205.52 199.06 204.31 199.13 202.94 199.13H191.3C189.54 199.13 188.19 198.74 187.23 197.96C186.28 197.18 185.8 196.17 185.8 194.92C185.8 194.18 186.02 193.36 186.45 192.46L198.38 166.14C198.93 164.93 199.51 163.95 200.14 163.21C200.76 162.47 201.48 161.9 202.3 161.51C203.12 161.12 204.04 160.86 205.08 160.72C206.11 160.58 207.31 160.51 208.68 160.51H219.44C221.2 160.51 222.55 160.89 223.51 161.65C224.46 162.41 224.94 163.45 224.94 164.78C224.94 165.09 224.89 165.44 224.8 165.83C224.7 166.22 224.54 166.67 224.3 167.17L223.48 168.98H211.08C209.13 168.98 207.82 169.8 207.16 171.44L205.7 174.83L199.67 188.05C199.51 188.36 199.44 188.67 199.44 188.99C199.44 189.46 199.61 189.85 199.96 190.16C200.31 190.47 200.82 190.63 201.48 190.63H214.53L213.24 193.5ZM226.29 168.99L230.15 160.51H260.04L256.18 168.99H226.29ZM233.72 199.12H222.55L233.55 174.84H244.72L233.72 199.12ZM257.47 199.12H246.3L263.85 160.51H275.02L257.47 199.12ZM294.73 171.56C294.89 171.17 294.96 170.88 294.96 170.68C294.96 170.17 294.76 169.77 294.37 169.45C293.98 169.14 293.43 168.98 292.73 168.98C290.97 168.98 289.73 169.8 288.98 171.44L281.49 187.94C281.33 188.25 281.26 188.6 281.26 188.99C281.26 190.08 282.08 190.63 283.72 190.63C285.24 190.63 286.39 189.81 287.17 188.17L294.72 171.56H294.73ZM295.96 193.5C295.41 194.67 294.84 195.63 294.23 196.37C293.63 197.11 292.91 197.69 292.1 198.1C291.28 198.51 290.34 198.78 289.29 198.92C288.24 199.06 287.03 199.13 285.66 199.13H273.14C271.39 199.13 270.03 198.74 269.08 197.96C268.13 197.18 267.65 196.17 267.65 194.92C267.65 194.3 267.88 193.48 268.35 192.46L280.23 166.14C280.78 164.97 281.36 164.01 281.99 163.27C282.61 162.53 283.33 161.95 284.15 161.55C284.97 161.14 285.89 160.87 286.93 160.73C287.96 160.59 289.16 160.52 290.53 160.52H303.05C304.81 160.52 306.17 160.91 307.15 161.69C308.12 162.47 308.61 163.48 308.61 164.73C308.61 165.47 308.39 166.29 307.96 167.19L295.97 193.51L295.96 193.5ZM323.45 174.84L312.45 199.12H301.28L312.34 174.84H323.46H323.45ZM329.42 199.12H318.3L330.82 171.57C330.94 171.3 330.99 171 330.99 170.69C330.99 169.56 330.31 168.99 328.94 168.99H315.02L318.82 160.51H339.06C340.81 160.51 342.17 160.9 343.12 161.68C344.08 162.46 344.55 163.49 344.55 164.78C344.55 165.09 344.5 165.44 344.4 165.83C344.3 166.22 344.14 166.67 343.9 167.17L329.39 199.11L329.42 199.12Z" fill="white"/>
<path d="M11.87 221.69H9.5L8.5 213.54L3.92 221.69H1.57L0 207.08H4.01L4.34 214.78L8.99 207.08H11.23L11.92 214.78L15.64 208.21C15.89 207.75 16.23 207.45 16.66 207.3C17.09 207.15 17.65 207.08 18.36 207.08H21.79L20.33 210.25H19.95C19.39 210.25 18.92 210.34 18.56 210.51C18.19 210.69 17.9 210.98 17.67 211.37L11.87 221.69ZM29.8 210.29H21.85L23.31 207.08H31.26L29.8 210.29ZM20.86 212.5H28.81L27.35 215.71H23.63L22.37 218.48H26.09L24.63 221.69H16.68L20.86 212.5ZM38.26 210.29L39.72 207.08H51.03L49.57 210.29H38.26ZM41.07 221.69H36.84L41 212.5H45.23L41.07 221.69ZM57.45 219.57C57.24 220.01 57.02 220.37 56.79 220.65C56.55 220.93 56.28 221.15 55.97 221.3C55.66 221.46 55.31 221.56 54.92 221.61C54.53 221.66 54.07 221.69 53.56 221.69H48.82C48.16 221.69 47.64 221.54 47.28 221.25C46.92 220.95 46.74 220.57 46.74 220.1C46.74 219.82 46.82 219.51 46.98 219.17L52.47 207.08H56.7L52.03 217.4C51.96 217.55 51.92 217.7 51.92 217.87C51.92 218.28 52.22 218.49 52.83 218.49C53.44 218.49 53.86 218.18 54.16 217.56L58.92 207.09H63.13L57.46 219.58L57.45 219.57ZM68.28 216.58C68.32 216.49 68.35 216.4 68.35 216.29C68.35 216.11 68.28 215.95 68.14 215.82C68 215.68 67.81 215.61 67.58 215.61H66.52L63.71 221.7H59.48L63.62 212.62H70.15L70.75 211.23C70.79 211.13 70.82 211.01 70.82 210.9C70.82 210.72 70.75 210.57 70.62 210.45C70.49 210.32 70.29 210.26 70.04 210.26H64.68L66.12 207.09H73.78C74.45 207.09 74.96 207.24 75.32 207.53C75.68 207.83 75.86 208.22 75.86 208.7C75.86 208.96 75.78 209.27 75.62 209.61L73.38 214.57C73.17 215 72.93 215.3 72.65 215.47C72.37 215.64 71.97 215.73 71.45 215.73H71.32C71.82 216.05 72.07 216.49 72.07 217.04C72.07 217.16 72.05 217.29 72.02 217.45C71.98 217.6 71.92 217.78 71.83 217.97L70.13 221.71H66.01L68.29 216.6L68.28 216.58ZM81.5 212.5L77.34 221.69H73.11L77.29 212.5H81.5ZM83.75 221.69H79.54L84.28 211.26C84.32 211.16 84.35 211.04 84.35 210.93C84.35 210.5 84.09 210.29 83.57 210.29H78.3L79.74 207.08H87.4C88.06 207.08 88.58 207.23 88.94 207.52C89.3 207.82 89.48 208.21 89.48 208.69C89.48 208.81 89.46 208.94 89.42 209.09C89.38 209.24 89.32 209.41 89.23 209.6L83.74 221.69H83.75ZM99.08 216.75C98.42 216.75 97.9 216.61 97.54 216.32C97.18 216.03 97 215.65 97 215.16C97 214.88 97.08 214.57 97.24 214.23L100.49 207.08H104.72L102.22 212.5C102.18 212.59 102.15 212.72 102.15 212.9C102.15 213.33 102.45 213.54 103.04 213.54H103.99L106.94 207.07H111.15L105.48 219.56C105.27 220 105.06 220.36 104.83 220.64C104.6 220.92 104.33 221.14 104.02 221.29C103.71 221.45 103.36 221.55 102.96 221.6C102.56 221.65 102.1 221.68 101.59 221.68H93.86L95.32 218.47H100.7C101.07 218.47 101.37 218.4 101.6 218.26C101.83 218.12 102.03 217.88 102.19 217.54L102.57 216.74H99.09L99.08 216.75ZM118.65 211.27C118.71 211.12 118.74 211.01 118.74 210.94C118.74 210.75 118.67 210.59 118.52 210.47C118.37 210.35 118.17 210.29 117.9 210.29C117.24 210.29 116.76 210.6 116.48 211.22L113.64 217.46C113.58 217.58 113.55 217.71 113.55 217.86C113.55 218.27 113.86 218.48 114.48 218.48C115.06 218.48 115.49 218.17 115.79 217.55L118.65 211.26V211.27ZM119.11 219.57C118.9 220.01 118.68 220.37 118.46 220.65C118.23 220.93 117.96 221.15 117.65 221.3C117.34 221.46 116.99 221.56 116.59 221.61C116.19 221.66 115.73 221.69 115.22 221.69H110.48C109.82 221.69 109.3 221.54 108.94 221.25C108.58 220.95 108.4 220.57 108.4 220.1C108.4 219.86 108.49 219.55 108.66 219.17L113.15 209.21C113.36 208.77 113.58 208.41 113.81 208.13C114.05 207.85 114.32 207.63 114.63 207.48C114.94 207.32 115.29 207.22 115.68 207.17C116.07 207.12 116.53 207.09 117.04 207.09H121.78C122.44 207.09 122.96 207.24 123.33 207.53C123.7 207.82 123.89 208.21 123.89 208.68C123.89 208.96 123.81 209.27 123.64 209.61L119.1 219.57H119.11ZM132.75 219.57C132.54 220.01 132.32 220.37 132.09 220.65C131.85 220.93 131.58 221.15 131.27 221.3C130.96 221.46 130.61 221.56 130.22 221.61C129.83 221.66 129.38 221.69 128.86 221.69H124.12C123.46 221.69 122.94 221.54 122.58 221.25C122.22 220.95 122.04 220.57 122.04 220.1C122.04 219.82 122.12 219.51 122.28 219.17L127.77 207.08H132L127.33 217.4C127.25 217.55 127.22 217.7 127.22 217.87C127.22 218.28 127.52 218.49 128.13 218.49C128.74 218.49 129.16 218.18 129.46 217.56L134.22 207.09H138.43L132.76 219.58L132.75 219.57ZM143.58 216.58C143.62 216.49 143.65 216.4 143.65 216.29C143.65 216.11 143.58 215.95 143.44 215.82C143.3 215.68 143.11 215.61 142.88 215.61H141.82L139.01 221.7H134.78L138.92 212.62H145.45L146.05 211.23C146.09 211.13 146.12 211.01 146.12 210.9C146.12 210.72 146.05 210.57 145.92 210.45C145.79 210.32 145.59 210.26 145.34 210.26H139.98L141.42 207.09H149.08C149.74 207.09 150.26 207.24 150.62 207.53C150.98 207.83 151.16 208.22 151.16 208.7C151.16 208.96 151.08 209.27 150.92 209.61L148.68 214.57C148.47 215 148.23 215.3 147.95 215.47C147.67 215.64 147.27 215.73 146.76 215.73H146.63C147.13 216.05 147.38 216.49 147.38 217.04C147.38 217.16 147.36 217.29 147.32 217.45C147.28 217.6 147.22 217.78 147.13 217.97L145.42 221.71H141.3L143.58 216.6V216.58ZM161.2 218.48H165.14L163.68 221.69H155.51L162.15 207.08H166.38L161.2 218.48ZM169.83 221.69H165.6L172.24 207.08H176.47L169.83 221.69ZM177.01 221.69H172.78L176.96 212.5H184.91L183.45 215.71H179.73L177.01 221.69ZM185.91 210.29H177.96L179.42 207.08H187.37L185.91 210.29ZM196.42 210.29H188.47L189.93 207.08H197.88L196.42 210.29ZM187.48 212.5H195.43L193.97 215.71H190.25L188.99 218.48H192.71L191.25 221.69H183.3L187.48 212.5ZM205.5 221.69H201.27L207.91 207.08H212.14L205.5 221.69ZM216.84 212.5L212.68 221.69H208.45L212.63 212.5H216.84ZM219.09 221.69H214.88L219.62 211.26C219.66 211.16 219.69 211.04 219.69 210.93C219.69 210.5 219.43 210.29 218.91 210.29H213.64L215.08 207.08H222.74C223.4 207.08 223.92 207.23 224.28 207.52C224.64 207.82 224.82 208.21 224.82 208.69C224.82 208.81 224.8 208.94 224.76 209.09C224.72 209.24 224.66 209.41 224.57 209.6L219.08 221.69H219.09ZM225.69 210.29L227.15 207.08H238.46L237 210.29H225.69ZM228.5 221.69H224.27L228.43 212.5H232.66L228.5 221.69ZM244.42 211.27C244.48 211.12 244.51 211.01 244.51 210.94C244.51 210.75 244.44 210.59 244.29 210.47C244.14 210.35 243.94 210.29 243.67 210.29C243.01 210.29 242.53 210.6 242.25 211.22L239.41 217.46C239.35 217.58 239.32 217.71 239.32 217.86C239.32 218.27 239.63 218.48 240.25 218.48C240.83 218.48 241.26 218.17 241.56 217.55L244.42 211.26V211.27ZM244.88 219.57C244.67 220.01 244.46 220.37 244.23 220.65C244 220.93 243.73 221.15 243.42 221.3C243.11 221.46 242.76 221.56 242.36 221.61C241.96 221.66 241.5 221.69 240.99 221.69H236.25C235.59 221.69 235.07 221.54 234.71 221.25C234.35 220.95 234.17 220.57 234.17 220.1C234.17 219.86 234.26 219.55 234.43 219.17L238.92 209.21C239.13 208.77 239.35 208.41 239.58 208.13C239.82 207.85 240.09 207.63 240.4 207.48C240.71 207.32 241.06 207.22 241.45 207.17C241.84 207.12 242.29 207.09 242.81 207.09H247.55C248.21 207.09 248.73 207.24 249.1 207.53C249.47 207.82 249.65 208.21 249.65 208.68C249.65 208.96 249.57 209.27 249.41 209.61L244.87 219.57H244.88ZM268.75 212.5L264.61 221.69H260.45L264.59 212.5H268.75ZM262.4 212.5L258.24 221.69H254.03L258.17 212.5H262.4ZM259.21 210.29L260.65 207.08H274.64C275.3 207.08 275.82 207.23 276.18 207.52C276.54 207.82 276.72 208.21 276.72 208.69C276.72 208.81 276.7 208.94 276.67 209.09C276.63 209.24 276.57 209.41 276.48 209.6L270.99 221.69H266.76L271.5 211.26C271.54 211.17 271.57 211.07 271.57 210.97C271.57 210.78 271.5 210.62 271.36 210.48C271.22 210.35 271.03 210.28 270.8 210.28H259.22L259.21 210.29ZM285.58 219.57C285.37 220.01 285.15 220.37 284.92 220.65C284.68 220.93 284.41 221.15 284.1 221.3C283.79 221.46 283.44 221.56 283.05 221.61C282.66 221.66 282.21 221.69 281.69 221.69H276.95C276.29 221.69 275.77 221.54 275.41 221.25C275.05 220.95 274.87 220.57 274.87 220.1C274.87 219.82 274.95 219.51 275.11 219.17L280.6 207.08H284.83L280.16 217.4C280.08 217.55 280.05 217.7 280.05 217.87C280.05 218.28 280.35 218.49 280.96 218.49C281.57 218.49 281.99 218.18 282.29 217.56L287.05 207.09H291.26L285.59 219.58L285.58 219.57ZM301.54 210.29H298.4C297.97 210.29 297.64 210.39 297.4 210.58C297.16 210.77 297.05 211.01 297.05 211.31C297.05 211.5 297.09 211.65 297.18 211.76C297.27 211.87 297.4 211.97 297.58 212.05C297.76 212.13 297.98 212.21 298.24 212.27C298.51 212.34 298.82 212.41 299.17 212.5C299.95 212.71 300.56 213.11 300.98 213.72C301.41 214.33 301.62 215.07 301.62 215.96C301.62 216.64 301.48 217.31 301.2 217.96C300.92 218.62 300.54 219.17 300.07 219.63C299.57 220.1 299.07 220.47 298.59 220.74C298.1 221 297.58 221.23 297.02 221.43C296.77 221.5 296.36 221.57 295.79 221.62C295.22 221.67 294.49 221.7 293.59 221.7H287.21L288.67 218.49H293.5C294.09 218.49 294.6 218.46 295.04 218.39C295.48 218.32 295.84 218.19 296.14 217.98C296.48 217.73 296.74 217.45 296.92 217.14C297.1 216.83 297.19 216.52 297.19 216.21C297.19 215.99 297.15 215.82 297.08 215.69C297 215.56 296.9 215.46 296.75 215.37C296.6 215.28 296.43 215.21 296.23 215.15C296.03 215.09 295.8 215.02 295.53 214.93C294.64 214.62 294 214.23 293.6 213.75C293.2 213.27 293 212.59 293 211.72C293 211.06 293.11 210.44 293.32 209.88C293.53 209.32 293.84 208.83 294.23 208.42C294.62 208.01 295.09 207.68 295.65 207.45C296.21 207.21 296.82 207.1 297.5 207.1H303.03L301.55 210.31L301.54 210.29ZM305.46 221.69H301.23L307.87 207.08H312.1L305.46 221.69ZM319.69 219.57C319.48 220.03 319.26 220.4 319.03 220.68C318.79 220.96 318.52 221.17 318.22 221.32C317.92 221.47 317.57 221.57 317.17 221.62C316.77 221.67 316.31 221.7 315.8 221.7H311.4C310.74 221.7 310.22 221.55 309.86 221.26C309.5 220.96 309.32 220.58 309.32 220.11C309.32 219.83 309.4 219.52 309.56 219.18L314.08 209.22C314.29 208.76 314.51 208.4 314.74 208.11C314.98 207.83 315.25 207.61 315.56 207.47C315.87 207.32 316.22 207.22 316.61 207.17C317 207.12 317.46 207.09 317.97 207.09H322.04C322.7 207.09 323.22 207.23 323.58 207.52C323.94 207.81 324.12 208.2 324.12 208.71C324.12 208.83 324.1 208.96 324.07 209.11C324.03 209.26 323.97 209.43 323.88 209.62L323.57 210.31H318.87C318.13 210.31 317.64 210.62 317.39 211.24L316.83 212.52L314.55 217.52C314.49 217.64 314.46 217.75 314.46 217.87C314.46 218.05 314.53 218.19 314.66 218.31C314.79 218.43 314.99 218.49 315.24 218.49H320.18L319.69 219.57Z" fill="white"/>
</svg>
